<?xml version="1.0" standalone="no"?>
<!DOCTYPE svg PUBLIC "-//W3C//DTD SVG 20010904//EN"
 "http://www.w3.org/TR/2001/REC-SVG-20010904/DTD/svg10.dtd">
<svg version="1.0" xmlns="http://www.w3.org/2000/svg"
 width="811.000000pt" height="308.000000pt" viewBox="0 0 811.000000 308.000000"
 preserveAspectRatio="xMidYMid meet">
<metadata>
Created by potrace 1.16, written by Peter Selinger 2001-2019
</metadata>
<g transform="translate(0.000000,308.000000) scale(0.100000,-0.100000)"
fill="#000000" stroke="none">
<path d="M0 1540 l0 -1540 4055 0 4055 0 0 1540 0 1540 -4055 0 -4055 0 0
-1540z m660 1391 l0 -99 -63 5 c-121 10 -167 -30 -175 -153 l-5 -74 127 0 126
0 0 -95 0 -95 -125 0 -125 0 0 -390 0 -390 -125 0 -125 0 0 390 0 390 -70 0
-70 0 0 95 0 95 69 0 69 0 4 108 c3 97 6 115 33 167 18 35 44 69 64 82 58 39
158 60 304 62 l87 1 0 -99z m6310 -21 c0 -54 -3 -100 -7 -102 -5 -2 -63 -2
-130 0 l-123 4 0 97 c0 54 2 100 4 102 2 2 61 3 130 1 l126 -3 0 -99z m-2054
34 c60 -37 136 -82 169 -102 33 -20 61 -37 63 -38 6 -3 -59 -114 -67 -114 -4
0 -11 4 -16 9 -6 4 -70 32 -144 61 -73 29 -153 61 -177 72 l-44 19 42 79 c24
44 48 80 54 80 6 0 60 -30 120 -66z m-3536 -334 c192 -25 267 -89 290 -247 5
-37 10 -216 10 -396 l0 -328 -127 3 -127 3 3 55 3 55 -26 -28 c-96 -104 -368
-127 -516 -45 -91 50 -129 112 -137 222 -17 230 143 351 437 333 82 -6 104
-11 162 -41 37 -18 69 -31 72 -29 8 8 -4 176 -15 211 -14 44 -57 64 -150 70
-121 7 -192 -26 -205 -95 l-6 -33 -107 0 c-58 0 -116 -3 -128 -6 -21 -6 -23
-3 -23 28 0 53 29 149 55 184 31 40 80 63 169 79 86 16 263 18 366 5z m1181
-24 c83 -53 116 -128 121 -273 l3 -86 -116 -1 -117 -1 -5 61 c-6 79 -30 121
-79 136 -84 25 -173 -33 -197 -128 -7 -26 -11 -161 -11 -349 l0 -306 -127 3
c-71 2 -127 6 -125 11 1 4 2 221 2 482 l0 475 126 0 127 0 -6 -59 -5 -59 30
33 c64 74 121 95 244 92 80 -2 95 -6 135 -31z m961 8 c55 -23 101 -62 124
-106 15 -29 18 -31 24 -13 4 11 26 38 48 61 124 126 431 109 536 -29 58 -76
60 -90 64 -494 l3 -373 -130 0 -131 0 0 333 c0 301 -2 336 -19 373 -26 58 -72
78 -167 72 -60 -4 -80 -10 -109 -32 -69 -53 -69 -55 -75 -416 l-5 -325 -127
-3 -128 -3 0 344 c0 210 -4 356 -10 374 -16 45 -63 67 -140 66 -107 -1 -168
-35 -203 -113 -19 -42 -21 -65 -22 -355 l-1 -310 -127 -3 -127 -3 0 486 0 485
125 0 125 0 0 -67 0 -67 36 42 c65 77 143 103 289 98 68 -2 115 -9 147 -22z
m1646 11 c153 -25 201 -54 244 -149 23 -50 23 -58 26 -433 l3 -383 -125 0
-126 0 0 52 0 52 -27 -27 c-69 -65 -242 -102 -374 -79 -173 30 -258 108 -275
254 -26 223 138 359 416 345 115 -6 171 -22 226 -64 l36 -27 -4 104 c-6 165
-29 190 -178 197 -74 4 -91 1 -130 -19 -36 -18 -48 -31 -60 -65 l-14 -43 -118
0 c-65 0 -121 1 -125 3 -5 1 -7 16 -6 32 9 163 72 230 234 253 102 15 276 13
377 -3z m1092 5 c104 -17 155 -38 199 -81 46 -46 69 -105 78 -201 l6 -68 -125
0 -126 0 -7 37 c-16 86 -76 123 -200 123 -92 0 -150 -21 -171 -62 -25 -48 -40
-242 -26 -342 20 -156 49 -180 212 -181 161 0 200 27 200 140 l0 45 126 0 127
0 -5 -92 c-10 -192 -98 -266 -345 -291 -269 -27 -473 39 -527 168 -61 146 -60
500 2 636 25 55 68 101 118 127 34 17 62 25 169 46 42 8 233 5 295 -4z m1600
-13 c105 -26 158 -68 195 -155 18 -44 20 -74 23 -424 l3 -378 -127 0 -126 0 4
63 4 64 -21 -30 c-51 -76 -230 -122 -381 -99 -132 21 -209 68 -254 159 -34 68
-35 195 -1 271 54 122 194 181 399 169 107 -6 168 -24 220 -64 l34 -26 -4 104
c-7 168 -33 194 -193 194 -112 0 -152 -19 -176 -84 l-16 -43 -124 1 c-68 1
-125 4 -128 7 -2 2 1 34 8 72 14 74 48 141 84 165 24 15 109 40 172 51 58 9
350 -3 405 -17z m-890 -472 l0 -485 -130 0 -130 0 0 485 0 485 130 0 130 0 0
-485z m-4601 -666 c88 0 165 2 171 6 5 3 10 1 10 -4 0 -6 5 -11 11 -11 5 0 7
5 3 12 -5 8 -2 9 10 5 10 -4 41 -10 69 -13 59 -7 144 -37 173 -60 10 -8 12
-12 4 -8 -10 5 -12 4 -5 -4 6 -5 19 -12 29 -14 10 -1 24 -12 30 -22 6 -11 19
-29 28 -40 24 -27 58 -119 64 -175 10 -87 11 -89 46 -87 l31 1 23 -160 c33
-227 35 -212 -30 -220 l-53 -7 -5 -126 c-12 -279 -76 -395 -257 -463 -58 -22
-169 -32 -336 -33 -79 0 -276 10 -282 15 -2 1 -6 2 -10 3 -5 1 -14 5 -20 9 -7
5 -18 5 -23 2 -15 -9 -101 26 -93 38 3 5 2 7 -4 4 -25 -16 -133 99 -117 125 5
7 3 8 -6 3 -10 -6 -12 -4 -7 9 4 9 3 15 -1 12 -11 -7 -29 45 -41 119 -11 72
-11 96 1 111 5 8 3 14 -7 18 -8 3 -15 1 -15 -4 0 -18 -48 -11 -54 8 -9 29 -48
353 -43 358 2 3 27 7 54 11 l50 5 6 132 c6 136 22 213 60 276 29 50 58 80 70
73 6 -3 7 -1 3 5 -8 13 60 56 75 46 8 -5 9 -3 4 6 -6 9 -2 10 15 5 15 -5 20
-3 16 3 -9 15 94 34 141 27 30 -4 34 -3 18 5 -18 9 -17 10 6 5 15 -2 99 -5
188 -6z m5436 -9 c195 -28 275 -142 275 -394 0 -188 -49 -287 -158 -320 -26
-8 -39 -15 -29 -15 34 -2 93 -40 120 -78 41 -60 48 -110 45 -328 l-3 -200 -77
0 -78 -1 0 176 c0 188 -11 253 -51 304 -41 52 -67 56 -365 56 l-274 0 -2 -267
-3 -268 -82 -1 -83 -1 0 674 0 673 348 0 c191 0 379 -5 417 -10z m-7105 -30
c156 -16 218 -43 265 -113 28 -41 55 -148 55 -219 l0 -56 -79 0 -79 -1 -10 81
c-19 147 -43 161 -279 166 -325 7 -379 -26 -377 -233 1 -104 20 -157 62 -174
47 -19 121 -29 302 -41 337 -21 419 -55 461 -190 26 -85 34 -196 20 -294 -21
-151 -72 -223 -181 -257 -97 -30 -320 -45 -470 -31 -153 14 -221 35 -277 87
-37 34 -47 51 -62 110 -19 73 -31 228 -18 233 4 1 40 2 81 2 l73 0 6 -90 c7
-113 25 -153 79 -174 121 -49 497 -37 567 18 53 42 65 287 17 358 -30 45 -73
55 -303 67 -278 15 -362 38 -435 119 -57 64 -81 138 -81 262 -1 156 36 255
112 305 97 63 316 89 551 65z m3210 -596 l0 -594 340 0 340 0 0 -75 0 -75
-425 0 -425 0 0 673 0 672 85 -3 85 -3 0 -595z m2278 516 l3 -70 -356 0 -355
0 0 -220 0 -220 340 0 340 0 0 -70 0 -70 -340 0 -340 0 0 -240 0 -240 355 0
355 0 0 -75 0 -75 -436 2 -436 3 -4 675 -4 675 438 -3 437 -3 3 -69z"/>
<path d="M1095 2055 c-22 -8 -51 -27 -64 -42 -20 -23 -23 -34 -19 -91 3 -52 9
-68 26 -83 56 -45 234 -49 321 -7 44 21 71 63 71 110 0 37 -38 88 -78 105 -53
22 -206 27 -257 8z"/>
<path d="M4885 2063 c-78 -21 -115 -62 -115 -126 0 -100 45 -131 190 -132 151
0 218 34 227 117 5 55 -23 103 -75 125 -37 16 -189 27 -227 16z"/>
<path d="M7499 2055 c-58 -19 -80 -43 -86 -98 -13 -112 38 -152 192 -152 97 0
168 20 200 55 29 32 31 99 3 140 -42 63 -194 90 -309 55z"/>
<path d="M2092 1050 c0 -14 2 -19 5 -12 2 6 2 18 0 25 -3 6 -5 1 -5 -13z"/>
<path d="M1762 720 c0 -14 2 -19 5 -12 2 6 2 18 0 25 -3 6 -5 1 -5 -13z"/>
<path d="M2641 564 c0 -11 3 -14 6 -6 3 7 2 16 -1 19 -3 4 -6 -2 -5 -13z"/>
<path d="M1761 554 c0 -11 3 -14 6 -6 3 7 2 16 -1 19 -3 4 -6 -2 -5 -13z"/>
<path d="M2172 450 c0 -19 2 -27 5 -17 2 9 2 25 0 35 -3 9 -5 1 -5 -18z"/>
<path d="M7210 1055 l0 -266 273 4 c305 4 342 11 396 72 36 42 45 90 39 223
-3 71 -10 110 -26 145 -35 79 -46 81 -389 85 l-293 4 0 -267z"/>
</g>
</svg>
