<?xml version="1.0" encoding="UTF-8"?>
<!-- Generator: visioncortex VTracer 0.6.12 -->
<svg version="1.1" xmlns="http://www.w3.org/2000/svg" width="1284" height="529">
<path d="M0 0 C0.778 -0.001 1.556 -0.001 2.357 -0.002 C3.156 0.018 3.955 0.038 4.777 0.059 C5.58 0.052 6.382 0.044 7.209 0.037 C11.739 0.086 14.365 0.159 17.715 3.496 C18.997 6.022 20.086 8.447 21.121 11.07 C21.28 11.458 21.28 11.458 22.082 13.417 C23.137 16.002 24.175 18.593 25.215 21.184 C25.963 23.022 26.712 24.86 27.463 26.698 C29.06 30.609 30.653 34.522 32.243 38.436 C35.906 47.436 39.654 56.402 43.399 65.369 C44.652 68.37 45.904 71.373 47.155 74.376 C55.651 94.759 64.18 115.129 72.715 135.496 C74.28 133.148 75.339 131.232 76.416 128.675 C76.742 127.905 77.068 127.135 77.404 126.342 C77.756 125.503 78.107 124.665 78.469 123.801 C78.841 122.918 79.214 122.036 79.597 121.126 C80.827 118.209 82.052 115.29 83.277 112.371 C84.138 110.325 85 108.279 85.861 106.233 C91.026 93.955 96.152 81.661 101.249 69.355 C102.278 66.87 103.308 64.386 104.339 61.901 C107.704 53.786 111.057 45.666 114.385 37.536 C116.026 33.53 117.677 29.529 119.33 25.529 C120.122 23.605 120.91 21.679 121.694 19.751 C122.78 17.081 123.881 14.417 124.984 11.754 C125.303 10.959 125.623 10.164 125.951 9.345 C128.85 2.429 128.85 2.429 132.715 0.496 C135.675 -0.117 138.635 -0.014 141.652 -0.004 C142.451 -0.032 143.249 -0.061 144.072 -0.09 C144.461 -0.091 144.461 -0.091 146.43 -0.098 C147.132 -0.105 147.835 -0.112 148.558 -0.119 C151.946 0.847 153.463 2.842 155.715 5.496 C156.596 8.616 156.596 8.616 156.962 12.187 C157.035 12.846 157.109 13.506 157.185 14.185 C157.425 16.386 157.634 18.588 157.843 20.792 C158.009 22.374 158.178 23.957 158.348 25.539 C158.803 29.83 159.232 34.124 159.655 38.419 C160.102 42.92 160.575 47.417 161.044 51.916 C161.829 59.473 162.598 67.032 163.355 74.593 C164.422 85.236 165.519 95.876 166.621 106.515 C167.386 113.902 168.142 121.289 168.898 128.676 C169.081 130.463 169.264 132.249 169.447 134.036 C169.969 139.134 170.487 144.233 170.997 149.333 C171.152 150.874 171.309 152.415 171.467 153.956 C173.648 175.259 173.648 175.259 171.428 178.202 C168.542 180.382 165.182 179.927 161.715 179.871 C160.99 179.883 160.266 179.894 159.52 179.906 C154.251 179.877 154.251 179.877 152.037 178.304 C150.282 175.904 150.15 174.131 149.867 171.176 C149.755 170.072 149.643 168.969 149.528 167.832 C149.418 166.621 149.309 165.41 149.197 164.162 C149.134 163.524 149.134 163.524 148.816 160.298 C148.472 156.802 148.144 153.304 147.819 149.805 C147.475 146.147 147.116 142.49 146.759 138.833 C146.084 131.906 145.422 124.977 144.765 118.048 C143.588 105.632 142.388 93.219 141.184 80.806 C140.762 76.447 140.346 72.088 139.933 67.729 C139.738 65.672 139.542 63.615 139.344 61.559 C139.103 59.048 138.865 56.537 138.631 54.025 C138.525 52.924 138.418 51.824 138.308 50.69 C138.217 49.729 138.126 48.769 138.033 47.78 C137.715 45.496 137.715 45.496 136.715 43.496 C133.193 51.704 129.672 59.912 126.152 68.121 C125.886 68.742 125.62 69.364 125.345 70.004 C118.963 84.888 112.589 99.775 106.246 114.676 C105.73 115.888 105.214 117.1 104.682 118.35 C102.217 124.141 99.754 129.933 97.293 135.725 C95.153 140.758 93.009 145.789 90.86 150.818 C90.112 152.566 89.366 154.315 88.621 156.065 C87.648 158.346 86.669 160.625 85.688 162.902 C85.41 163.555 85.133 164.208 84.848 164.88 C83.695 167.536 82.783 169.428 80.715 171.496 C78.211 171.858 75.915 172.049 73.402 172.121 C72.744 172.158 72.744 172.158 69.414 172.348 C65.715 171.496 65.715 171.496 64.425 170.039 C61.118 164.482 58.493 158.765 56.004 152.801 C55.563 151.759 55.121 150.718 54.666 149.645 C53.218 146.223 51.779 142.797 50.34 139.371 C49.328 136.977 48.316 134.583 47.303 132.19 C45.724 128.458 44.145 124.725 42.57 120.991 C38.819 112.099 35.048 103.217 31.262 94.34 C31 93.727 30.739 93.114 30.47 92.483 C29.179 89.455 27.887 86.427 26.595 83.399 C24.204 77.794 21.814 72.188 19.426 66.582 C19.021 65.634 18.617 64.686 18.201 63.71 C15.337 56.986 12.517 50.245 9.715 43.496 C9.385 43.496 9.055 43.496 8.715 43.496 C8.651 44.179 8.586 44.861 8.52 45.565 C6.957 62.166 5.38 78.766 3.785 95.364 C3.015 103.391 2.249 111.418 1.495 119.446 C0.838 126.442 0.172 133.438 -0.505 140.432 C-0.864 144.137 -1.218 147.842 -1.56 151.548 C-1.943 155.682 -2.346 159.814 -2.751 163.947 C-2.862 165.179 -2.973 166.412 -3.087 167.682 C-3.2 168.806 -3.314 169.929 -3.431 171.086 C-3.524 172.064 -3.617 173.042 -3.713 174.05 C-4.364 176.834 -4.964 177.853 -7.285 179.496 C-10.046 179.794 -12.531 179.915 -15.285 179.871 C-16.01 179.883 -16.734 179.894 -17.48 179.906 C-22.781 179.877 -22.781 179.877 -24.998 178.202 C-29.434 172.323 -25.529 158.702 -24.804 151.575 C-24.644 149.974 -24.485 148.374 -24.326 146.773 C-23.805 141.548 -23.274 136.325 -22.742 131.102 C-22.559 129.298 -22.376 127.495 -22.193 125.692 C-21.431 118.197 -20.666 110.701 -19.895 103.206 C-18.791 92.481 -17.702 81.754 -16.635 71.024 C-15.882 63.467 -15.112 55.913 -14.329 48.359 C-13.862 43.851 -13.403 39.342 -12.962 34.831 C-12.548 30.594 -12.112 26.36 -11.66 22.127 C-11.497 20.574 -11.343 19.019 -11.197 17.464 C-10.996 15.341 -10.767 13.224 -10.532 11.105 C-10.411 9.918 -10.29 8.731 -10.166 7.509 C-8.701 2.497 -5.184 -0.014 0 0 Z " fill="#1D1D1B" transform="translate(839.28515625,238.50390625)"/>
<path d="M0 0 C0.687 -0.005 1.374 -0.011 2.082 -0.016 C4.348 -0.029 6.613 -0.02 8.88 -0.01 C10.471 -0.012 12.062 -0.015 13.653 -0.019 C16.993 -0.023 20.333 -0.017 23.672 -0.003 C27.907 0.014 32.141 0.004 36.376 -0.014 C39.668 -0.025 42.96 -0.021 46.252 -0.013 C47.811 -0.011 49.369 -0.014 50.927 -0.021 C70.793 -0.091 88.976 2.706 103.872 17.138 C115.309 29.316 120.529 43.457 120.334 60.1 C119.873 74.108 114.688 87.225 105.012 97.537 C100.034 102.083 94.682 106.925 87.985 108.388 C93.805 120.604 99.652 132.801 105.735 144.888 C107.488 148.387 109.238 151.887 110.985 155.388 C111.399 156.214 111.812 157.041 112.239 157.892 C113.396 160.218 114.537 162.551 115.673 164.888 C116.012 165.564 116.351 166.24 116.701 166.937 C118.607 170.91 119.443 173.983 118.985 178.388 C116.671 180.702 111.276 179.716 108.173 179.763 C107.715 179.782 107.715 179.782 105.397 179.876 C104.512 179.888 103.627 179.9 102.716 179.912 C101.905 179.931 101.094 179.951 100.259 179.972 C96.827 179.091 95.917 177.313 93.985 174.388 C92.553 171.822 91.272 169.197 90.009 166.544 C89.641 165.786 89.274 165.028 88.895 164.246 C87.711 161.797 86.535 159.343 85.36 156.888 C84.551 155.209 83.741 153.529 82.931 151.85 C81.337 148.543 79.747 145.235 78.161 141.925 C76.309 138.061 74.446 134.202 72.579 130.345 C71.672 128.464 70.766 126.582 69.86 124.701 C69.453 123.86 69.046 123.02 68.627 122.154 C65.985 116.62 65.985 116.62 65.985 114.388 C47.505 114.388 29.025 114.388 9.985 114.388 C10.02 118.745 10.055 123.102 10.091 127.591 C10.11 131.067 10.126 134.543 10.14 138.02 C10.156 141.688 10.177 145.356 10.211 149.024 C10.244 152.558 10.262 156.092 10.27 159.626 C10.278 161.629 10.301 163.632 10.325 165.635 C10.325 166.856 10.325 168.077 10.326 169.334 C10.332 170.409 10.339 171.484 10.346 172.591 C9.934 175.784 9.29 177.159 6.985 179.388 C4.162 179.768 1.795 179.903 -1.015 179.826 C-1.739 179.833 -2.464 179.84 -3.21 179.847 C-8.397 179.785 -8.397 179.785 -10.721 178.293 C-12.689 175.396 -12.399 172.955 -12.409 169.48 C-12.415 168.773 -12.421 168.066 -12.428 167.338 C-12.444 164.963 -12.44 162.589 -12.435 160.214 C-12.442 158.514 -12.451 156.814 -12.46 155.114 C-12.483 150.493 -12.486 145.871 -12.484 141.249 C-12.484 137.394 -12.492 133.54 -12.501 129.685 C-12.52 120.594 -12.523 111.504 -12.516 102.413 C-12.509 93.025 -12.532 83.637 -12.569 74.249 C-12.6 66.197 -12.611 58.144 -12.607 50.091 C-12.605 45.278 -12.611 40.465 -12.635 35.653 C-12.657 31.128 -12.656 26.604 -12.635 22.08 C-12.632 20.417 -12.637 18.754 -12.651 17.091 C-12.669 14.826 -12.657 12.562 -12.636 10.297 C-12.637 9.027 -12.638 7.758 -12.639 6.451 C-12.015 3.388 -12.015 3.388 -9.68 1.48 C-6.309 0.099 -3.644 0.007 0 0 Z M9.985 22.388 C9.985 45.818 9.985 69.248 9.985 93.388 C14.399 93.419 14.399 93.419 36.735 93.576 C38.116 93.589 38.116 93.589 45.105 93.658 C47.331 93.667 49.556 93.675 51.782 93.681 C52.345 93.689 52.345 93.689 55.195 93.728 C66.801 93.731 77.703 91.756 86.985 84.388 C94.545 76.813 98.153 68.543 98.485 57.888 C98.179 47.75 94.902 39.818 87.985 32.388 C78.48 23.538 68.539 21.789 55.884 21.998 C55.299 22 55.299 22 52.34 22.01 C48.013 22.031 43.687 22.086 39.36 22.138 C29.666 22.221 19.973 22.303 9.985 22.388 Z " fill="#1D1D1B" transform="translate(669.014892578125,238.61181640625)"/>
<path d="M0 0 C1.149 -0.006 2.299 -0.012 3.483 -0.019 C4.724 -0.01 5.966 -0 7.245 0.009 C8.533 0.009 9.821 0.008 11.149 0.008 C13.882 0.008 16.616 0.018 19.35 0.036 C22.806 0.059 26.261 0.059 29.718 0.053 C62.882 0.007 91.786 3.181 116.292 27.372 C135.1 46.869 140.858 70.365 140.573 96.779 C140.345 104.82 138.951 111.779 136.292 119.372 C135.941 120.409 135.591 121.445 135.229 122.513 C126.621 145.35 108.893 162.183 87.134 172.552 C73.452 178.649 59.081 179.685 44.315 179.638 C42.813 179.639 41.31 179.641 39.808 179.644 C36.686 179.647 33.565 179.642 30.444 179.633 C26.44 179.622 22.437 179.628 18.433 179.64 C15.343 179.647 12.253 179.645 9.163 179.64 C7.685 179.639 6.208 179.64 4.73 179.645 C2.677 179.65 0.624 179.642 -1.429 179.631 C-2.597 179.63 -3.764 179.628 -4.967 179.626 C-7.708 179.372 -7.708 179.372 -9.708 177.372 C-9.965 174.417 -9.965 174.417 -9.975 170.546 C-9.98 169.836 -9.984 169.126 -9.989 168.394 C-10.002 166.003 -10 163.612 -9.999 161.22 C-10.005 159.511 -10.011 157.801 -10.019 156.091 C-10.037 151.438 -10.041 146.786 -10.043 142.133 C-10.044 138.253 -10.052 134.374 -10.059 130.494 C-10.075 121.345 -10.08 112.195 -10.079 103.045 C-10.077 93.595 -10.099 84.146 -10.13 74.696 C-10.156 66.592 -10.167 58.489 -10.166 50.385 C-10.165 45.541 -10.171 40.697 -10.192 35.852 C-10.211 31.298 -10.212 26.744 -10.197 22.189 C-10.195 20.515 -10.2 18.84 -10.212 17.166 C-10.227 14.886 -10.218 12.606 -10.202 10.325 C-10.204 9.048 -10.205 7.77 -10.206 6.453 C-9.708 3.372 -9.708 3.372 -7.843 1.461 C-5.089 0.057 -3.089 -0.002 0 0 Z M11.292 22.372 C11.292 67.252 11.292 112.132 11.292 158.372 C78.957 158.372 78.957 158.372 99.565 138.228 C113.46 123.676 119.682 105.255 119.507 85.384 C118.813 67.505 111.235 52.211 98.69 39.798 C73.724 18.109 43.497 22.372 11.292 22.372 Z " fill="#1D1D1B" transform="translate(338.7080078125,238.627685546875)"/>
<path d="M0 0 C0.991 -0.004 1.982 -0.009 3.004 -0.013 C4.09 -0.012 5.176 -0.012 6.296 -0.012 C7.44 -0.015 8.585 -0.018 9.765 -0.022 C13.56 -0.031 17.356 -0.033 21.151 -0.034 C23.783 -0.037 26.415 -0.041 29.046 -0.044 C34.567 -0.051 40.087 -0.052 45.608 -0.052 C51.989 -0.051 58.37 -0.062 64.75 -0.077 C70.889 -0.092 77.028 -0.096 83.166 -0.095 C85.778 -0.096 88.39 -0.101 91.002 -0.108 C94.651 -0.118 98.299 -0.115 101.948 -0.109 C102.49 -0.112 102.49 -0.112 105.234 -0.126 C106.228 -0.122 107.222 -0.118 108.246 -0.114 C109.108 -0.114 109.971 -0.115 110.86 -0.115 C113.44 0.161 115.031 0.693 117.186 2.134 C118.293 5.454 118.389 8.077 118.436 11.571 C118.462 12.704 118.488 13.837 118.515 15.005 C118.133 18.647 117.935 19.725 115.186 22.134 C111.929 22.739 108.695 22.638 105.391 22.588 C104.386 22.588 103.381 22.589 102.345 22.59 C99.017 22.587 95.69 22.556 92.362 22.524 C90.057 22.517 87.752 22.511 85.447 22.507 C79.376 22.492 73.305 22.453 67.234 22.408 C59.952 22.36 52.669 22.342 45.387 22.319 C34.32 22.28 23.254 22.203 12.186 22.134 C12.186 39.294 12.186 56.454 12.186 74.134 C18.071 74.099 23.956 74.064 30.018 74.028 C33.742 74.013 37.465 73.998 41.188 73.987 C47.101 73.969 53.013 73.948 58.926 73.907 C63.692 73.875 68.457 73.857 73.223 73.849 C75.043 73.844 76.863 73.833 78.683 73.817 C81.228 73.795 83.773 73.792 86.318 73.793 C87.074 73.782 87.83 73.772 88.609 73.76 C93.663 73.79 93.663 73.79 96.153 75.425 C97.96 78.414 97.616 81.748 97.561 85.134 C97.573 85.858 97.585 86.583 97.597 87.329 C97.568 92.503 97.568 92.503 96.153 94.843 C93.076 96.862 89.877 96.525 86.318 96.474 C85.518 96.475 84.718 96.475 83.894 96.476 C81.247 96.474 78.602 96.45 75.956 96.427 C74.122 96.421 72.288 96.417 70.453 96.414 C65.625 96.402 60.797 96.373 55.968 96.34 C50.176 96.304 44.383 96.29 38.59 96.272 C29.789 96.243 20.988 96.186 12.186 96.134 C12.186 116.264 12.186 136.394 12.186 157.134 C19.587 157.111 26.987 157.087 34.612 157.063 C39.293 157.053 43.973 157.044 48.653 157.036 C56.087 157.024 63.52 157.01 70.954 156.983 C76.945 156.961 82.936 156.949 88.927 156.944 C91.216 156.94 93.505 156.933 95.794 156.922 C98.993 156.908 102.192 156.906 105.391 156.907 C106.343 156.899 107.295 156.892 108.277 156.885 C108.712 156.886 108.712 156.886 110.915 156.893 C111.294 156.892 111.294 156.892 113.209 156.888 C115.186 157.134 115.186 157.134 118.186 159.134 C119.293 162.454 119.389 165.077 119.436 168.571 C119.449 169.138 119.449 169.138 119.515 172.005 C119.147 175.511 118.617 176.646 116.186 179.134 C113.902 179.631 113.902 179.631 111.17 179.628 C110.133 179.637 109.097 179.645 108.03 179.654 C107.462 179.648 107.462 179.648 104.587 179.62 C103.39 179.623 102.193 179.627 100.96 179.631 C97.676 179.637 94.394 179.625 91.111 179.605 C87.678 179.588 84.245 179.591 80.812 179.592 C75.047 179.59 69.283 179.573 63.519 179.545 C56.849 179.514 50.18 179.503 43.511 179.505 C37.1 179.506 30.689 179.496 24.278 179.479 C21.547 179.472 18.816 179.468 16.085 179.467 C12.276 179.463 8.466 179.446 4.657 179.424 C4.088 179.425 4.088 179.425 1.208 179.427 C0.174 179.418 -0.859 179.41 -1.924 179.401 C-2.374 179.399 -2.374 179.399 -4.655 179.391 C-6.814 179.134 -6.814 179.134 -8.814 177.134 C-9.062 174.176 -9.062 174.176 -9.061 170.301 C-9.063 169.59 -9.066 168.879 -9.068 168.147 C-9.074 165.753 -9.065 163.36 -9.057 160.966 C-9.058 159.254 -9.06 157.543 -9.062 155.832 C-9.067 151.175 -9.059 146.518 -9.049 141.861 C-9.041 136.996 -9.042 132.131 -9.043 127.266 C-9.042 119.094 -9.033 110.923 -9.019 102.752 C-9.004 93.294 -8.998 83.836 -8.999 74.378 C-9 65.294 -8.995 56.21 -8.986 47.125 C-8.983 43.253 -8.981 39.381 -8.98 35.508 C-8.979 30.951 -8.973 26.394 -8.963 21.837 C-8.96 20.161 -8.959 18.485 -8.96 16.809 C-8.96 14.528 -8.955 12.247 -8.947 9.966 C-8.946 8.688 -8.944 7.409 -8.942 6.092 C-8.814 3.134 -8.814 3.134 -7.814 1.134 C-4.897 0.161 -3.035 0.006 0 0 Z " fill="#1D1D1B" transform="translate(513.8135833740234,238.8662872314453)"/>
<path d="M0 0 C0.834 -0.017 1.668 -0.034 2.527 -0.051 C5.861 0.427 7.382 1.221 10.062 3.312 C11.719 6.064 12.841 8.993 14.004 11.98 C14.364 12.866 14.724 13.752 15.095 14.665 C16.286 17.604 17.455 20.552 18.625 23.5 C19.462 25.575 20.301 27.648 21.142 29.721 C22.902 34.063 24.656 38.407 26.406 42.753 C30.171 52.077 34.052 61.351 37.933 70.627 C40.028 75.633 42.115 80.643 44.203 85.652 C44.407 86.141 44.407 86.141 45.439 88.616 C50.312 100.306 55.174 112.002 60.014 123.707 C60.693 125.349 61.372 126.991 62.051 128.633 C62.382 129.433 62.713 130.234 63.054 131.059 C65.088 135.973 67.137 140.881 69.198 145.785 C70.531 148.959 71.858 152.136 73.183 155.313 C73.804 156.795 74.427 158.276 75.054 159.755 C75.91 161.776 76.755 163.801 77.598 165.828 C78.076 166.965 78.554 168.103 79.047 169.274 C80.032 172.221 80.449 174.241 80.062 177.312 C77.461 179.914 75.589 179.601 72.039 179.635 C71.263 179.632 70.487 179.628 69.688 179.625 C68.919 179.641 68.151 179.657 67.359 179.674 C66.614 179.674 65.869 179.675 65.102 179.676 C64.762 179.677 64.762 179.677 63.045 179.685 C61.062 179.312 61.062 179.312 57.062 176.312 C52.442 164.762 47.822 153.212 43.062 141.312 C14.352 140.982 -14.358 140.653 -43.938 140.312 C-44.267 141.962 -44.597 143.613 -44.938 145.312 C-46.367 149.376 -47.963 153.373 -49.548 157.378 C-50.309 159.304 -51.061 161.234 -51.812 163.164 C-52.295 164.389 -52.777 165.613 -53.273 166.875 C-53.712 167.99 -54.151 169.105 -54.603 170.254 C-57.891 177.789 -57.891 177.789 -60.938 179.312 C-63.783 179.437 -66.592 179.498 -69.438 179.5 C-70.223 179.512 -71.008 179.524 -71.816 179.537 C-73.858 179.542 -75.899 179.435 -77.938 179.312 C-79.938 177.312 -79.938 177.312 -80.269 174.718 C-79.841 170.32 -78.386 166.858 -76.633 162.832 C-76.282 162.004 -75.932 161.175 -75.571 160.322 C-74.411 157.585 -73.237 154.855 -72.062 152.125 C-71.241 150.193 -70.421 148.261 -69.602 146.328 C-67.898 142.311 -66.19 138.297 -64.478 134.284 C-60.959 126.027 -57.502 117.744 -54.044 109.462 C-52.18 104.998 -50.31 100.536 -48.441 96.074 C-45.046 87.964 -41.656 79.852 -38.267 71.739 C-35.292 64.617 -32.305 57.499 -29.316 50.382 C-26.982 44.819 -24.666 39.248 -22.362 33.672 C-20.81 29.924 -19.247 26.181 -17.682 22.438 C-16.941 20.659 -16.205 18.879 -15.474 17.096 C-14.466 14.641 -13.442 12.193 -12.414 9.746 C-12.267 9.382 -12.267 9.382 -11.523 7.54 C-10.312 4.696 -9.443 2.666 -6.87 0.867 C-4.516 0.192 -2.45 0.011 0 0 Z M-0.938 35.312 C-6.865 49.951 -12.784 64.593 -18.696 79.237 C-19.867 82.139 -21.039 85.04 -22.211 87.941 C-23.882 92.079 -25.549 96.218 -27.213 100.358 C-27.82 101.867 -28.428 103.376 -29.038 104.883 C-29.876 106.959 -30.71 109.036 -31.543 111.113 C-32.009 112.27 -32.474 113.427 -32.954 114.618 C-33.938 117.312 -33.938 117.312 -33.938 119.312 C-11.498 119.312 10.942 119.312 34.062 119.312 C32.153 113.585 30.219 107.989 27.968 102.406 C27.675 101.673 27.382 100.94 27.08 100.185 C26.125 97.798 25.166 95.413 24.207 93.027 C23.538 91.359 22.87 89.69 22.202 88.021 C20.454 83.656 18.702 79.291 16.95 74.927 C15.158 70.463 13.369 65.998 11.58 61.533 C8.077 52.792 4.571 44.052 1.062 35.312 C0.403 35.312 -0.257 35.312 -0.938 35.312 Z " fill="#1D1D1B" transform="translate(157.9375,238.6875)"/>
<path d="M0 0 C0.75 -0.026 1.5 -0.052 2.273 -0.078 C5.466 0.367 7.04 1.288 9.625 3.25 C11.048 5.826 12.181 8.211 13.27 10.922 C13.596 11.698 13.922 12.475 14.259 13.275 C15.334 15.844 16.385 18.422 17.438 21 C18.193 22.818 18.95 24.636 19.708 26.453 C21.659 31.143 23.591 35.84 25.515 40.54 C26.559 43.09 27.607 45.638 28.656 48.186 C31.243 54.467 33.826 60.75 36.394 67.039 C41.307 79.068 46.282 91.071 51.285 103.063 C52.554 106.105 53.821 109.148 55.088 112.191 C58.85 121.223 62.62 130.251 66.432 139.261 C68.039 143.063 69.639 146.868 71.237 150.674 C71.989 152.458 72.744 154.241 73.504 156.022 C74.549 158.472 75.58 160.926 76.609 163.383 C76.918 164.096 77.226 164.81 77.544 165.544 C79.218 169.584 80.146 172.874 79.625 177.25 C76.62 180.255 73.272 179.618 69.25 179.625 C68.482 179.649 67.713 179.674 66.922 179.699 C66.549 179.701 66.549 179.701 64.664 179.711 C63.986 179.719 63.307 179.727 62.608 179.736 C60.625 179.25 60.625 179.25 56.625 175.25 C52.005 164.03 47.385 152.81 42.625 141.25 C14.245 141.25 -14.135 141.25 -43.375 141.25 C-47.995 152.8 -52.615 164.35 -57.375 176.25 C-61.789 179.56 -64.218 179.71 -69.438 179.625 C-70.157 179.637 -70.877 179.648 -71.619 179.66 C-74.515 179.644 -76.847 179.529 -79.434 178.164 C-81.138 174.699 -79.935 170.912 -78.739 167.361 C-77.92 165.306 -77.049 163.281 -76.156 161.258 C-75.992 160.875 -75.992 160.875 -75.158 158.938 C-74.445 157.282 -73.728 155.628 -73.008 153.976 C-71.048 149.477 -69.116 144.966 -67.18 140.457 C-66.778 139.525 -66.377 138.593 -65.964 137.633 C-61.886 128.147 -57.936 118.608 -54 109.062 C-47.222 92.65 -40.351 76.278 -33.426 59.927 C-32.637 58.063 -31.848 56.2 -31.059 54.336 C-30.67 53.419 -30.282 52.503 -29.883 51.559 C-27.142 45.081 -24.428 38.594 -21.723 32.102 C-20.624 29.469 -19.524 26.837 -18.425 24.205 C-17.732 22.543 -17.04 20.88 -16.352 19.215 C-15.406 16.932 -14.454 14.651 -13.5 12.371 C-13.363 12.037 -13.363 12.037 -12.669 10.348 C-11.252 6.979 -9.867 3.951 -7.375 1.25 C-4.647 0.341 -2.828 0.058 0 0 Z M-0.375 34.25 C-8.128 52.457 -15.642 70.754 -23 89.125 C-23.197 89.616 -23.197 89.616 -24.196 92.104 C-25.334 94.94 -26.469 97.778 -27.602 100.617 C-27.939 101.457 -28.276 102.296 -28.623 103.161 C-28.941 103.963 -29.26 104.764 -29.588 105.589 C-29.862 106.275 -30.136 106.961 -30.418 107.668 C-31.836 111.494 -33.085 115.38 -34.375 119.25 C-11.935 119.25 10.505 119.25 33.625 119.25 C32.795 115.1 31.782 111.84 30.22 107.954 C29.976 107.343 29.732 106.732 29.48 106.103 C28.675 104.091 27.863 102.08 27.051 100.07 C26.483 98.656 25.916 97.242 25.349 95.828 C23.855 92.1 22.355 88.375 20.853 84.649 C19.348 80.911 17.847 77.17 16.346 73.43 C14.125 67.899 11.902 62.369 9.677 56.84 C6.648 49.315 3.635 41.783 0.625 34.25 C0.295 34.25 -0.035 34.25 -0.375 34.25 Z " fill="#1D1D1B" transform="translate(1116.375,238.75)"/>
<path d="M0 0 C44.93 0 44.93 0 52.625 7.562 C56.909 13.122 56.491 19.257 56 26 C54.371 30.8 52.119 33.105 48 36 C48.615 36.364 49.23 36.727 49.863 37.102 C58.491 42.468 58.491 42.468 60 48 C61.186 61.463 61.186 61.463 57 67 C51.504 73.492 46.873 73.782 38 76 C25.46 76 12.92 76 0 76 C0 50.92 0 25.84 0 0 Z M13 13 C13 19.27 13 25.54 13 32 C33.22 32.449 33.22 32.449 40 29 C42.82 26.014 42.99 24.543 43.062 20.438 C41.971 16.907 41.142 15.712 38.044 13.787 C33.617 12.082 28.793 12.601 24.125 12.75 C23.055 12.768 21.985 12.786 20.883 12.805 C18.255 12.852 15.627 12.923 13 13 Z M13 44 C13 50.27 13 56.54 13 63 C17.209 63.108 21.415 63.187 25.625 63.25 C26.815 63.284 28.005 63.317 29.23 63.352 C40.283 63.475 40.283 63.475 45 59 C47 56 47 56 46.875 52.562 C45.928 48.705 45.11 47.378 42 45 C38.762 43.921 36.422 43.886 33.02 43.902 C32.438 43.904 32.438 43.904 29.494 43.912 C28.887 43.916 28.887 43.916 25.812 43.938 C25.199 43.94 25.199 43.94 22.096 43.951 C19.064 43.963 16.032 43.981 13 44 Z " fill="#1D1D1B" transform="translate(302,87)"/>
<path d="M0 0 C7.417 6.052 12.905 14.777 14.688 24.25 C15.493 37.42 13.947 48.544 5.688 59.25 C-2.278 67.096 -11.816 71.352 -22.938 71.5 C-33.995 71.374 -41.889 68.523 -50.312 61.25 C-59.158 51.93 -61.654 41.339 -61.523 28.816 C-60.945 19.044 -57.009 9.815 -49.945 2.949 C-35.516 -9.046 -15.787 -10.902 0 0 Z M-41.75 14.938 C-46.455 22.075 -47.997 29.185 -46.887 37.641 C-45.203 45.293 -41.201 49.863 -35.375 54.938 C-30.376 58.119 -25.152 58.952 -19.312 58.25 C-12.827 56.69 -7.611 53.685 -3.867 48.09 C0.424 40.354 1.834 32.7 -0.375 24.062 C-2.896 16.973 -6.435 11.964 -13.062 8.25 C-23.525 3.645 -34.377 5.962 -41.75 14.938 Z " fill="#1D1D1B" transform="translate(897.3125,92.75)"/>
<path d="M0 0 C9.229 6.464 15.762 14.948 18.172 25.996 C19.955 37.625 17.93 49.235 11.172 58.996 C4.838 66.785 -3.205 72.097 -13.141 73.746 C-24.601 74.527 -35.003 73.14 -44.141 65.746 C-53.579 56.705 -57.411 47.787 -58.453 34.871 C-58.045 22.964 -53.451 12.527 -44.828 4.371 C-32.71 -5.762 -13.879 -8.13 0 0 Z M-37.598 16.676 C-43.045 23.985 -44.129 31.829 -43.141 40.746 C-41.864 47.335 -38.14 52.367 -33.141 56.746 C-27.518 60.399 -21.779 61.849 -15.141 60.746 C-7.207 58.609 -2.147 53.882 1.957 46.871 C5.01 40.055 5.038 31.568 2.797 24.496 C-0.389 17.384 -5.53 12.151 -12.816 9.367 C-22.338 6.823 -30.989 9.447 -37.598 16.676 Z " fill="#1D1D1B" transform="translate(461.140625,90.25390625)"/>
<path d="M0 0 C46.045 0 46.045 0 54.371 8.141 C59.74 14.269 59.535 20.491 59.34 28.398 C58.792 34.205 57.419 37.834 53.059 41.738 C51.088 43.259 49.091 44.652 47 46 C46.01 46.66 45.02 47.32 44 48 C44.461 48.692 44.923 49.384 45.398 50.098 C46.784 52.177 48.17 54.256 49.555 56.336 C51.283 58.929 53.018 61.516 54.758 64.102 C55.214 64.781 55.67 65.46 56.139 66.16 C57.041 67.503 57.944 68.845 58.849 70.186 C62 74.887 62 74.887 62 76 C56.678 76.705 51.26 77.383 46 76 C41.869 72.663 39.607 68.575 37 64 C36.24 62.859 35.468 61.726 34.684 60.602 C29 52.437 29 52.437 29 50 C23.72 50 18.44 50 13 50 C13 58.58 13 67.16 13 76 C8.71 76 4.42 76 0 76 C0 50.92 0 25.84 0 0 Z M13 13 C13 20.92 13 28.84 13 37 C16.651 37.082 20.301 37.165 24.062 37.25 C25.2 37.286 26.337 37.323 27.508 37.36 C33.913 37.43 37.847 36.91 43 33 C45.474 29.102 46.362 26.305 45.5 21.812 C44.297 17.958 42.48 16.122 39 14 C35.941 12.98 33.876 12.885 30.676 12.902 C30.213 12.904 30.213 12.904 27.868 12.91 C27.282 12.914 27.282 12.914 24.312 12.938 C22.446 12.948 22.446 12.948 13 13 Z " fill="#1D1D1B" transform="translate(1021,87)"/>
<path d="M0 0 C46.045 0 46.045 0 54.371 8.141 C59.741 14.27 59.527 20.487 59.348 28.395 C58.745 34.648 56.755 38.678 52.062 42.812 C49.433 44.691 46.78 46.359 44 48 C44.474 48.706 44.948 49.412 45.437 50.14 C47.202 52.77 48.965 55.402 50.726 58.034 C51.488 59.171 52.25 60.308 53.013 61.444 C54.113 63.081 55.209 64.72 56.305 66.359 C56.965 67.344 57.624 68.328 58.304 69.343 C59.696 71.524 60.907 73.659 62 76 C56.659 76.905 51.249 77.705 46 76 C41.58 72.63 38.849 67.635 36.106 62.89 C34.644 60.391 32.982 58.051 31.312 55.688 C29 52.268 29 52.268 29 50 C23.72 50 18.44 50 13 50 C13 58.58 13 67.16 13 76 C8.71 76 4.42 76 0 76 C0 50.92 0 25.84 0 0 Z M13 13 C13 20.92 13 28.84 13 37 C16.671 37.062 20.342 37.124 24.125 37.188 C25.271 37.215 26.417 37.242 27.598 37.27 C33.146 37.316 37.243 37.213 42 34 C45.019 30.981 45.834 28.245 46 24 C44.535 19.45 43.24 16.385 39 14 C35.941 12.98 33.876 12.885 30.676 12.902 C30.213 12.904 30.213 12.904 27.868 12.91 C27.282 12.914 27.282 12.914 24.312 12.938 C22.446 12.948 22.446 12.948 13 13 Z " fill="#1D1D1B" transform="translate(525,87)"/>
<path d="M0 0 C17.82 0 35.64 0 54 0 C54 4.29 54 8.58 54 13 C40.47 13 26.94 13 13 13 C13 18.94 13 24.88 13 31 C24.88 31 36.76 31 49 31 C49 35.29 49 39.58 49 44 C37.12 44 25.24 44 13 44 C13 50.27 13 56.54 13 63 C26.53 63 40.06 63 54 63 C54 67.29 54 71.58 54 76 C36.18 76 18.36 76 0 76 C0 50.92 0 25.84 0 0 Z " fill="#1D1D1B" transform="translate(1126,87)"/>
<path d="M0 0 C0.597 0.006 0.597 0.006 3.621 0.035 C4.22 0.04 4.22 0.04 7.25 0.062 C8.177 0.074 9.104 0.086 10.059 0.098 C14.664 8.794 18.376 17.823 22.121 26.91 C22.778 28.498 23.436 30.086 24.094 31.673 C25.431 34.9 26.765 38.128 28.099 41.356 C29.961 45.864 31.833 50.368 33.707 54.871 C34.539 56.873 35.371 58.875 36.203 60.878 C36.731 62.147 37.258 63.415 37.787 64.684 C38.513 66.429 39.237 68.175 39.961 69.922 C40.368 70.902 40.775 71.883 41.195 72.893 C42.059 75.098 42.059 75.098 42.059 76.098 C37.109 76.098 32.159 76.098 27.059 76.098 C24.749 70.488 22.439 64.878 20.059 59.098 C9.169 59.098 -1.721 59.098 -12.941 59.098 C-15.251 64.708 -17.561 70.318 -19.941 76.098 C-24.561 76.098 -29.181 76.098 -33.941 76.098 C-32.817 69.348 -32.817 69.348 -31.458 66.205 C-31.156 65.497 -30.854 64.789 -30.543 64.06 C-30.214 63.308 -29.885 62.556 -29.547 61.781 C-29.203 60.979 -28.859 60.178 -28.505 59.351 C-27.385 56.743 -26.257 54.139 -25.129 51.535 C-23.578 47.93 -22.031 44.322 -20.484 40.715 C-20.098 39.816 -19.712 38.917 -19.314 37.991 C-15.253 28.525 -11.327 19.005 -7.434 9.469 C-6.983 8.368 -6.531 7.267 -6.066 6.133 C-5.677 5.178 -5.288 4.223 -4.887 3.239 C-3.508 0.116 -3.508 0.116 0 0 Z M3.059 18.098 C1.408 21.845 -0.236 25.596 -1.879 29.348 C-2.347 30.411 -2.816 31.475 -3.299 32.57 C-3.747 33.595 -4.195 34.62 -4.656 35.676 C-5.07 36.618 -5.484 37.561 -5.91 38.532 C-6.941 41.098 -6.941 41.098 -7.941 45.098 C-0.351 45.098 7.239 45.098 15.059 45.098 C13.8 41.942 12.542 38.786 11.246 35.535 C10.856 34.555 10.465 33.574 10.063 32.564 C8.126 27.712 6.142 22.889 4.059 18.098 C3.729 18.098 3.399 18.098 3.059 18.098 Z " fill="#1D1D1B" transform="translate(657.94140625,86.90234375)"/>
<path d="M0 0 C3.353 0.033 6.706 0.065 10.059 0.098 C15.419 11.356 20.204 22.839 24.996 34.348 C25.776 36.216 26.557 38.085 27.338 39.953 C28.859 43.595 30.377 47.239 31.89 50.885 C33.311 54.307 34.743 57.725 36.184 61.139 C36.831 62.682 37.478 64.226 38.125 65.77 C38.424 66.471 38.723 67.173 39.031 67.897 C40.243 70.802 41.059 72.915 41.059 76.098 C36.439 76.098 31.819 76.098 27.059 76.098 C25.887 73.475 24.722 70.849 23.559 68.223 C23.225 67.476 22.891 66.73 22.547 65.961 C22.231 65.246 21.915 64.53 21.59 63.793 C21.297 63.133 21.003 62.473 20.701 61.793 C20.059 60.098 20.059 60.098 20.059 58.098 C8.839 58.098 -2.381 58.098 -13.941 58.098 C-14.271 59.748 -14.601 61.398 -14.941 63.098 C-15.73 65.198 -16.566 67.282 -17.441 69.348 C-17.885 70.405 -18.328 71.462 -18.785 72.551 C-19.941 75.098 -19.941 75.098 -20.941 76.098 C-24.536 76.209 -28.12 76.159 -31.717 76.127 C-32.781 76.117 -33.845 76.108 -34.941 76.098 C-30.42 63.58 -25.296 51.369 -20.004 39.16 C-18.451 35.569 -16.901 31.976 -15.352 28.383 C-15.165 27.95 -15.165 27.95 -14.22 25.762 C-11.419 19.26 -8.703 12.725 -6.057 6.158 C-3.607 0.12 -3.607 0.12 0 0 Z M3.059 18.098 C-7.941 41.534 -7.941 41.534 -7.941 45.098 C-0.681 45.098 6.579 45.098 14.059 45.098 C13.287 41.241 12.471 38.358 10.992 34.797 C10.589 33.82 10.187 32.844 9.771 31.838 C9.351 30.83 8.93 29.823 8.496 28.785 C8.071 27.758 7.647 26.732 7.209 25.674 C6.163 23.147 5.113 20.621 4.059 18.098 C3.729 18.098 3.399 18.098 3.059 18.098 Z " fill="#1D1D1B" transform="translate(217.94140625,86.90234375)"/>
<path d="M0 0 C14.85 0 29.7 0 45 0 C45 14.85 45 29.7 45 45 C30.15 45 15.3 45 0 45 C0 30.15 0 15.3 0 0 Z " fill="#00BA80" transform="translate(249,305)"/>
<path d="M0 0 C19.47 0 38.94 0 59 0 C59 4.29 59 8.58 59 13 C51.41 13 43.82 13 36 13 C36 33.79 36 54.58 36 76 C31.38 76 26.76 76 22 76 C22 55.21 22 34.42 22 13 C14.74 13 7.48 13 0 13 C0 8.71 0 4.42 0 0 Z " fill="#1D1D1B" transform="translate(737,87)"/>
<path d="M0 0 C4.62 0 9.24 0 14 0 C14 20.79 14 41.58 14 63 C26.54 63 39.08 63 52 63 C52 67.29 52 71.58 52 76 C34.84 76 17.68 76 0 76 C0 50.92 0 25.84 0 0 Z " fill="#1D1D1B" transform="translate(95,87)"/>
<path d="M0 0 C4.29 0 8.58 0 13 0 C13 25.08 13 50.16 13 76 C8.71 76 4.42 76 0 76 C0 50.92 0 25.84 0 0 Z " fill="#1D1D1B" transform="translate(958,87)"/>
</svg>
