<?xml version="1.0" encoding="UTF-8"?>
<!-- Generator: visioncortex VTracer 0.6.12 -->
<svg version="1.1" xmlns="http://www.w3.org/2000/svg" width="3840" height="2160">
<path d="M0 0 C28.646 -0.046 57.291 -0.081 85.937 -0.102 C89.337 -0.105 92.737 -0.107 96.136 -0.11 C96.813 -0.11 97.49 -0.111 98.187 -0.111 C109.072 -0.12 119.957 -0.136 130.842 -0.154 C142.053 -0.173 153.264 -0.184 164.475 -0.188 C170.754 -0.191 177.033 -0.197 183.313 -0.211 C261.619 -0.388 336.041 8.957 399 60 C399.929 60.737 400.859 61.475 401.816 62.234 C418.571 75.676 434.942 90.91 448 108 C449.012 109.285 450.025 110.568 451.039 111.852 C503.267 178.438 524.37 263.463 515.035 347.059 C507.344 409.01 484.772 471.269 445 520 C444.265 520.926 443.53 521.851 442.773 522.805 C429.105 539.854 413.506 556.865 396 570 C395.319 570.52 394.637 571.04 393.935 571.576 C340.025 612.67 276.64 630.672 209.227 630.135 C206.929 630.125 204.63 630.115 202.331 630.107 C196.161 630.081 189.991 630.042 183.821 630.001 C177.347 629.96 170.873 629.931 164.399 629.901 C153.555 629.848 142.711 629.789 131.867 629.724 C120.71 629.656 109.552 629.594 98.395 629.537 C97.704 629.534 97.014 629.53 96.302 629.526 C92.838 629.509 89.373 629.491 85.909 629.474 C57.272 629.329 28.636 629.17 0 629 C0.467 627.266 0.935 625.533 1.404 623.801 C1.665 622.835 1.925 621.87 2.194 620.876 C3.136 617.513 4.201 614.202 5.296 610.887 C11.56 591.888 12.15 573.356 12.14 553.513 C12.143 551.324 12.146 549.136 12.149 546.947 C12.157 540.953 12.159 534.958 12.16 528.964 C12.162 522.492 12.169 516.019 12.176 509.546 C12.191 494.667 12.196 479.788 12.201 464.908 C12.203 457.549 12.207 450.19 12.211 442.83 C12.223 417.618 12.234 392.406 12.238 367.194 C12.238 365.613 12.238 364.032 12.238 362.451 C12.238 360.866 12.239 359.282 12.239 357.697 C12.239 354.518 12.24 351.34 12.24 348.161 C12.24 347.373 12.24 346.585 12.241 345.773 C12.244 320.217 12.26 294.662 12.283 269.106 C12.308 242.06 12.322 215.014 12.323 187.968 C12.323 184.997 12.323 182.026 12.324 179.054 C12.324 178.323 12.324 177.591 12.324 176.837 C12.325 165.088 12.336 153.339 12.35 141.59 C12.365 129.773 12.368 117.956 12.36 106.139 C12.356 99.743 12.357 93.347 12.371 86.951 C12.384 81.088 12.383 75.225 12.37 69.362 C12.369 67.249 12.372 65.136 12.38 63.023 C12.447 45.723 10.922 30.294 4.312 14.125 C3.492 12.067 2.675 10.007 1.863 7.945 C1.505 7.064 1.147 6.182 0.779 5.274 C0 3 0 3 0 0 Z M99 55 C99 226.27 99 397.54 99 574 C246.951 574 246.951 574 266 569.812 C266.994 569.597 267.987 569.382 269.011 569.161 C290.857 564.237 312.643 556.035 331 543 C331.895 542.376 332.789 541.752 333.711 541.109 C336.51 539.118 339.262 537.076 342 535 C342.425 534.679 342.425 534.679 344.574 533.055 C357.693 522.74 369.409 510.651 379 497 C379.404 496.43 379.808 495.86 380.224 495.272 C426.59 429.391 433.015 346.473 420 269 C418.451 260.645 416.347 252.511 414.125 244.312 C413.997 243.835 413.997 243.835 413.348 241.416 C411.752 235.536 409.975 229.762 408 224 C407.766 223.278 407.531 222.556 407.29 221.812 C402.104 205.829 395.223 190.631 387 176 C386.3 174.731 385.601 173.461 384.902 172.191 C380.995 165.156 376.781 158.473 372 152 C371.323 151.068 370.646 150.136 369.949 149.176 C365.834 143.584 361.567 138.147 357.125 132.812 C356.661 132.247 356.196 131.682 355.718 131.1 C353.516 128.494 352.3 127.1 349 126 C347.812 123.938 347.812 123.938 347 122 C346.34 122 345.68 122 345 122 C344.758 121.434 344.515 120.868 344.266 120.285 C332.267 98.62 298.815 81.786 276.813 72.752 C275.196 72.081 273.593 71.377 271.992 70.668 C217.823 46.903 156.429 55 99 55 Z " fill="#000000" transform="translate(1719,770)"/>
<path d="M0 0 C0.405 0 0.405 0 2.455 0.003 C3.382 0.001 4.309 0 5.264 -0.001 C5.777 0 5.777 0 8.37 0.01 C8.907 0.009 8.907 0.009 11.622 0.009 C15.188 0.01 18.753 0.018 22.319 0.025 C24.784 0.027 27.249 0.029 29.714 0.03 C36.216 0.034 42.718 0.043 49.22 0.054 C55.848 0.065 62.477 0.069 69.106 0.074 C82.124 0.085 95.141 0.102 108.159 0.123 C109.159 2.123 109.159 2.123 108.586 4.176 C108.265 5.014 107.943 5.853 107.612 6.717 C107.263 7.656 106.914 8.595 106.554 9.562 C106.176 10.572 105.798 11.582 105.409 12.623 C96.205 38.199 97.005 64.456 97.014 91.294 C97.014 95.522 97.008 99.749 97.004 103.977 C96.995 112.239 96.993 120.501 96.992 128.763 C96.992 135.485 96.989 142.207 96.986 148.93 C96.977 168.036 96.973 187.142 96.974 206.248 C96.974 206.761 96.974 206.761 96.974 209.361 C96.974 209.875 96.974 209.875 96.974 212.478 C96.974 229.143 96.965 245.808 96.951 262.473 C96.936 279.631 96.929 296.788 96.93 313.946 C96.931 323.56 96.928 333.175 96.917 342.789 C96.908 350.974 96.906 359.159 96.913 367.345 C96.916 371.511 96.916 375.678 96.907 379.845 C96.866 400.956 97.034 421.92 101.347 442.686 C101.56 443.725 101.774 444.765 101.994 445.836 C105.465 461.932 111.32 476.689 119.159 491.123 C119.485 491.739 119.811 492.355 120.147 492.99 C124.645 501.468 129.797 508.926 136.159 516.123 C136.537 516.556 136.537 516.556 138.448 518.744 C140.654 521.234 142.894 523.687 145.159 526.123 C145.47 526.461 145.47 526.461 147.046 528.174 C174.098 556.473 214.256 569.852 252.593 571.248 C298.028 572.031 341.145 554.873 373.897 523.443 C406.339 491.148 422.179 445.669 422.297 400.481 C422.296 399.163 422.294 397.846 422.293 396.489 C422.295 395.045 422.297 393.601 422.3 392.158 C422.306 388.221 422.306 384.285 422.304 380.349 C422.304 376.091 422.31 371.833 422.314 367.575 C422.323 359.244 422.326 350.913 422.326 342.582 C422.327 335.804 422.329 329.026 422.332 322.247 C422.341 302.996 422.345 283.745 422.344 264.494 C422.344 263.457 422.344 262.421 422.344 261.353 C422.344 260.315 422.344 259.278 422.344 258.209 C422.344 241.407 422.353 224.605 422.367 207.803 C422.382 190.518 422.389 173.232 422.388 155.947 C422.388 146.256 422.39 136.566 422.401 126.875 C422.41 118.621 422.412 110.367 422.406 102.113 C422.402 97.91 422.402 93.707 422.411 89.504 C422.52 33.632 422.52 33.632 411.358 9.552 C409.696 5.904 408.915 3.946 410.159 0.123 C418.852 0.1 427.546 0.082 436.239 0.071 C440.277 0.066 444.314 0.059 448.352 0.048 C452.255 0.037 456.159 0.031 460.062 0.028 C461.544 0.026 463.026 0.023 464.508 0.017 C472.443 -0.011 480.279 0.082 488.159 1.123 C487.98 1.715 487.801 2.307 487.617 2.917 C487.122 4.56 486.633 6.204 486.147 7.85 C485.442 10.186 484.707 12.513 483.952 14.834 C477.01 36.51 476.712 58.251 476.756 80.795 C476.76 85.027 476.748 89.258 476.737 93.489 C476.721 100.803 476.716 108.117 476.718 115.43 C476.72 126.037 476.704 136.643 476.683 147.25 C476.65 164.508 476.628 181.765 476.615 199.023 C476.615 199.538 476.615 199.538 476.613 202.144 C476.61 206.316 476.607 210.487 476.604 214.659 C476.595 226.123 476.584 237.586 476.572 249.05 C476.571 250.076 476.57 251.102 476.569 252.159 C476.551 269.347 476.525 286.536 476.494 303.724 C476.476 314.285 476.465 324.847 476.464 335.408 C476.463 342.663 476.455 349.918 476.441 357.173 C476.434 361.339 476.43 365.505 476.434 369.671 C476.517 451.583 457.536 523.583 398.46 582.83 C384.377 596.161 368.209 606.999 351.159 616.123 C350.485 616.49 349.81 616.857 349.115 617.234 C330.819 627.115 311.385 633.51 291.159 638.123 C290.428 638.292 289.698 638.46 288.945 638.634 C263.833 644.241 232.819 646.536 207.589 640.676 C205.098 640.109 202.6 639.607 200.093 639.115 C170.489 633.177 142.289 622.626 117.283 605.549 C114.323 603.53 111.431 601.599 108.159 600.123 C108.159 599.463 108.159 598.803 108.159 598.123 C107.591 597.851 107.022 597.579 106.436 597.299 C104.095 596.09 101.923 594.757 99.722 593.311 C98.98 592.83 98.239 592.349 97.475 591.854 C94.76 589.825 92.517 587.559 90.159 585.123 C89.182 584.142 88.202 583.163 87.222 582.186 C81.097 576.061 81.097 576.061 79.606 574.568 C78.224 573.188 76.838 571.812 75.452 570.436 C53.6 548.398 21.159 504.164 21.159 472.123 C20.499 471.793 19.839 471.463 19.159 471.123 C18.614 469.286 18.614 469.286 18.19 466.857 C18.025 465.951 17.86 465.044 17.69 464.109 C17.603 463.617 17.603 463.617 17.159 461.123 C16.756 459.065 16.35 457.008 15.94 454.951 C15.513 452.759 15.086 450.566 14.659 448.373 C14.446 447.295 14.234 446.218 14.015 445.107 C11.46 431.941 9.86 419.24 9.894 405.813 C9.89 404.32 9.886 402.827 9.881 401.334 C9.869 397.272 9.869 393.209 9.872 389.146 C9.872 384.749 9.861 380.351 9.851 375.953 C9.836 368.342 9.827 360.731 9.824 353.12 C9.818 342.09 9.799 331.061 9.777 320.032 C9.741 302.101 9.713 284.171 9.691 266.24 C9.689 265.168 9.688 264.097 9.687 262.993 C9.677 255.39 9.668 247.788 9.659 240.186 C9.649 231.517 9.638 222.848 9.627 214.179 C9.626 213.112 9.625 212.044 9.623 210.944 C9.601 193.088 9.571 175.233 9.535 157.377 C9.513 146.388 9.499 135.399 9.493 124.411 C9.489 116.867 9.477 109.324 9.461 101.781 C9.452 97.442 9.445 93.103 9.448 88.764 C9.463 58.043 8.041 30.104 -2.841 1.123 C-1.841 0.123 -1.841 0.123 0 0 Z " fill="#000000" transform="translate(1156.8409585952759,769.8769521713257)"/>
<path d="M0 0 C0.395 0.003 0.395 0.003 2.396 0.016 C2.823 0.017 2.823 0.017 4.984 0.026 C5.882 0.034 6.78 0.042 7.705 0.051 C8.607 0.056 9.508 0.06 10.437 0.065 C12.672 0.077 14.907 0.094 17.142 0.114 C20.86 7.179 23.793 14.501 26.728 21.918 C27.267 23.271 27.806 24.624 28.345 25.976 C29.483 28.833 30.62 31.691 31.754 34.55 C34.708 41.99 37.676 49.425 40.642 56.86 C40.787 57.223 40.787 57.223 41.521 59.064 C45.786 69.754 50.098 80.423 54.517 91.051 C60.202 104.732 65.713 118.479 71.205 132.239 C82.105 159.55 82.105 159.55 87.455 172.676 C93.384 187.225 99.266 201.793 105.142 216.364 C105.643 217.605 106.144 218.846 106.645 220.088 C107.652 222.585 108.659 225.083 109.667 227.58 C109.916 228.2 110.166 228.819 110.424 229.457 C110.93 230.712 111.436 231.967 111.942 233.222 C116.705 245.032 121.474 256.841 126.244 268.649 C134.385 288.801 142.516 308.956 150.642 329.114 C158.387 348.324 166.135 367.533 173.892 386.739 C174.32 387.797 174.747 388.855 175.187 389.945 C178.172 397.335 181.157 404.724 184.142 412.114 C186.698 418.439 189.253 424.764 191.807 431.089 C193.527 435.348 195.248 439.606 196.969 443.865 C201.297 454.573 205.616 465.286 209.916 476.005 C211.844 480.812 213.775 485.618 215.707 490.424 C217.033 493.725 218.358 497.026 219.679 500.329 C225.297 514.372 231.032 528.354 237.029 542.239 C237.295 542.857 237.561 543.475 237.835 544.112 C248.985 569.985 262.992 592.02 282.041 612.766 C284.288 615.276 286.405 617.864 288.517 620.489 C292.373 625.272 296.449 629.789 300.689 634.23 C304.142 637.901 304.142 637.901 304.142 640.114 C263.552 640.114 222.962 640.114 181.142 640.114 C142.887 542.736 142.887 542.736 135.006 522.504 C134.677 521.662 134.349 520.819 134.011 519.951 C133.357 518.272 132.703 516.594 132.049 514.915 C125.9 499.128 119.694 483.365 113.455 467.614 C112.65 465.58 111.844 463.546 111.039 461.512 C107.71 453.105 104.378 444.698 101.027 436.299 C99.786 433.184 98.548 430.069 97.311 426.953 C96.746 425.533 96.179 424.113 95.61 422.695 C94.842 420.777 94.079 418.858 93.318 416.938 C92.894 415.876 92.471 414.815 92.034 413.722 C91.142 411.114 91.142 411.114 91.142 408.114 C24.152 408.114 -42.838 408.114 -111.858 408.114 C-112.188 409.764 -112.518 411.414 -112.858 413.114 C-113.338 414.518 -113.856 415.91 -114.41 417.287 C-114.571 417.689 -114.571 417.689 -115.382 419.721 C-115.735 420.591 -116.088 421.462 -116.451 422.36 C-116.638 422.826 -116.638 422.826 -117.585 425.188 C-118.839 428.31 -120.098 431.431 -121.358 434.551 C-122.252 436.775 -123.146 439 -124.039 441.225 C-126.718 447.891 -129.404 454.553 -132.092 461.216 C-133.373 464.39 -134.652 467.564 -135.932 470.739 C-139.875 480.521 -143.819 490.303 -147.767 500.083 C-154.13 515.848 -160.472 531.621 -166.778 547.409 C-173.842 565.095 -180.917 582.777 -188.027 600.446 C-189.311 603.635 -190.593 606.824 -191.872 610.015 C-193.291 613.552 -194.715 617.087 -196.139 620.621 C-196.558 621.668 -196.977 622.715 -197.408 623.793 C-197.805 624.774 -198.201 625.755 -198.61 626.766 C-198.949 627.61 -199.288 628.454 -199.638 629.324 C-201.239 632.985 -203.071 636.54 -204.858 640.114 C-233.238 640.114 -261.618 640.114 -290.858 640.114 C-286.362 632.246 -286.362 632.246 -283.94 629.352 C-283.676 629.033 -283.676 629.033 -282.342 627.42 C-281.79 626.762 -281.239 626.104 -280.67 625.426 C-279.499 624.005 -278.33 622.584 -277.162 621.16 C-276.595 620.469 -276.027 619.777 -275.443 619.065 C-271.758 614.529 -268.29 609.841 -264.858 605.114 C-264.395 604.478 -263.932 603.843 -263.456 603.189 C-239.869 570.69 -225.339 533.707 -210.048 496.806 C-206.19 487.498 -202.312 478.198 -198.435 468.898 C-196.302 463.781 -194.17 458.664 -192.037 453.547 C-191.609 452.52 -191.181 451.493 -190.74 450.435 C-188.178 444.285 -185.618 438.134 -183.059 431.982 C-174.091 410.417 -165.081 388.87 -155.979 367.361 C-149.652 352.408 -143.405 337.423 -137.198 322.42 C-132.135 310.181 -127.038 297.955 -121.92 285.739 C-121.733 285.292 -121.733 285.292 -120.788 283.035 C-118.52 277.623 -116.252 272.211 -113.983 266.799 C-110.648 258.842 -107.315 250.884 -103.983 242.926 C-103.614 242.047 -103.246 241.167 -102.867 240.261 C-98.549 229.952 -94.241 219.64 -89.948 209.321 C-89.535 208.329 -89.123 207.338 -88.698 206.317 C-88.283 205.321 -87.869 204.326 -87.442 203.3 C-86.602 201.28 -85.761 199.259 -84.92 197.239 C-84.504 196.238 -84.087 195.237 -83.658 194.205 C-77.541 179.509 -71.374 164.835 -65.17 150.176 C-58.445 134.285 -51.794 118.365 -45.198 102.42 C-38.294 85.732 -31.319 69.073 -24.335 52.418 C-21.898 46.602 -19.468 40.784 -17.042 34.964 C-15.365 30.941 -13.687 26.919 -12.008 22.897 C-11.203 20.967 -10.399 19.036 -9.595 17.105 C-8.486 14.437 -7.373 11.771 -6.26 9.106 C-6.094 8.706 -6.094 8.706 -5.256 6.685 C-2.522 0.154 -2.522 0.154 0 0 Z M-9.858 156.114 C-19.842 180.27 -29.659 204.492 -39.42 228.739 C-39.716 229.472 -40.011 230.206 -40.315 230.962 C-41.797 234.643 -43.279 238.324 -44.76 242.005 C-45.048 242.718 -45.335 243.432 -45.631 244.167 C-46.205 245.594 -46.779 247.02 -47.353 248.447 C-51.797 259.488 -56.255 270.524 -60.733 281.551 C-66.896 296.731 -73.036 311.921 -79.17 327.114 C-79.64 328.276 -80.109 329.439 -80.593 330.637 C-81.928 333.942 -83.262 337.246 -84.596 340.551 C-84.997 341.545 -85.399 342.539 -85.812 343.563 C-85.998 344.025 -85.998 344.025 -86.941 346.36 C-87.264 347.161 -87.588 347.962 -87.921 348.787 C-88.23 349.555 -88.539 350.323 -88.858 351.114 C-89.042 351.544 -89.042 351.544 -89.977 353.723 C-90.858 356.114 -90.858 356.114 -90.858 359.114 C-37.398 359.114 16.062 359.114 71.142 359.114 C64.259 339.61 64.259 339.61 61.611 333.016 C61.303 332.239 60.994 331.462 60.676 330.662 C60.014 328.995 59.35 327.328 58.684 325.661 C56.815 320.978 54.956 316.289 53.095 311.602 C52.698 310.602 52.301 309.601 51.891 308.571 C47.489 297.484 43.134 286.378 38.779 275.272 C27.633 246.86 16.442 218.465 5.142 190.114 C4.782 189.21 4.422 188.307 4.051 187.376 C2.14 182.582 0.222 177.791 -1.708 173.004 C-2.259 171.638 -2.808 170.27 -3.355 168.902 C-4.084 167.081 -4.82 165.263 -5.557 163.446 C-5.757 162.949 -5.757 162.949 -6.771 160.437 C-7.858 158.114 -7.858 158.114 -9.858 156.114 Z " fill="#000000" transform="translate(2480.857666015625,758.886474609375)"/>
<path d="M0 0 C6.6 0 13.2 0 20 0 C24.726 9.934 28.895 20.01 32.943 30.234 C34.917 35.222 36.905 40.204 38.891 45.188 C39.307 46.234 39.723 47.28 40.153 48.357 C44.833 60.108 49.571 71.836 54.312 83.562 C55.201 85.761 56.089 87.959 56.978 90.157 C58.766 94.582 60.555 99.007 62.344 103.431 C66.649 114.078 70.95 124.726 75.25 135.375 C75.676 136.431 76.103 137.487 76.542 138.574 C84.135 157.374 91.718 176.178 99.299 194.983 C109.337 219.879 119.385 244.772 129.439 269.661 C133.355 279.354 137.269 289.047 141.183 298.74 C143.372 304.16 145.561 309.58 147.75 315 C148.625 317.167 149.5 319.333 150.375 321.5 C150.808 322.572 151.241 323.645 151.688 324.75 C167 362.667 182.312 400.583 197.625 438.5 C198.058 439.572 198.491 440.645 198.937 441.75 C199.813 443.918 200.689 446.086 201.564 448.254 C203.742 453.646 205.92 459.038 208.099 464.43 C212.157 474.472 216.21 484.517 220.244 494.569 C222.125 499.254 224.009 503.938 225.893 508.622 C226.78 510.829 227.665 513.037 228.549 515.245 C241.743 548.213 255.513 579.061 279 606 C280.055 607.218 281.11 608.437 282.164 609.656 C284.344 612.175 286.524 614.692 288.707 617.207 C289.248 617.83 289.789 618.454 290.346 619.096 C291.462 620.381 292.579 621.664 293.697 622.947 C295.343 624.837 296.984 626.73 298.625 628.625 C298.873 628.909 298.873 628.909 300.131 630.345 C302.834 633.476 304.845 636.408 307 640 C266.41 640 225.82 640 184 640 C164.357 590.314 164.357 590.314 156.188 569.5 C155.259 567.135 154.33 564.769 153.401 562.404 C144.763 540.404 136.134 518.4 127.507 496.396 C124.459 488.621 121.411 480.847 118.363 473.073 C116.211 467.586 114.06 462.099 111.911 456.612 C108.391 447.629 104.867 438.648 101.301 429.684 C100.768 428.342 100.236 427 99.703 425.658 C98.771 423.311 97.834 420.965 96.892 418.621 C96.5 417.633 96.107 416.644 95.703 415.625 C95.37 414.792 95.036 413.96 94.692 413.102 C94 411 94 411 94 408 C27.01 408 -39.98 408 -109 408 C-109.33 409.65 -109.66 411.3 -110 413 C-110.936 415.554 -111.906 418.068 -112.93 420.586 C-113.232 421.338 -113.533 422.091 -113.844 422.866 C-114.85 425.371 -115.863 427.873 -116.875 430.375 C-117.591 432.153 -118.306 433.931 -119.021 435.71 C-121.341 441.476 -123.67 447.238 -126 453 C-126.798 454.974 -127.595 456.948 -128.393 458.921 C-131.619 466.907 -134.847 474.892 -138.079 482.875 C-142.934 494.874 -147.764 506.882 -152.56 518.905 C-156.452 528.661 -160.372 538.406 -164.309 548.145 C-164.783 549.318 -165.258 550.492 -165.747 551.702 C-166.229 552.896 -166.712 554.091 -167.21 555.321 C-178.601 583.498 -189.847 611.728 -201 640 C-229.71 640 -258.42 640 -288 640 C-286.503 637.006 -285.292 634.924 -283.27 632.375 C-282.995 632.027 -282.995 632.027 -281.608 630.265 C-281.016 629.517 -280.423 628.77 -279.812 628 C-248.4 587.955 -227.808 546.328 -208.486 499.446 C-204.057 488.704 -199.593 477.976 -195.125 467.25 C-194.707 466.247 -194.29 465.244 -193.859 464.211 C-187.33 448.536 -180.74 432.887 -174.122 417.25 C-167.795 402.296 -161.547 387.311 -155.341 372.306 C-150.277 360.067 -145.181 347.842 -140.062 335.625 C-139.876 335.179 -139.876 335.179 -138.93 332.921 C-136.662 327.509 -134.394 322.097 -132.126 316.686 C-128.79 308.729 -125.457 300.771 -122.125 292.812 C-121.758 291.936 -121.39 291.059 -121.012 290.155 C-114.519 274.65 -108.055 259.132 -101.595 243.613 C-96.093 230.396 -90.565 217.19 -85 204 C-79.047 189.89 -73.137 175.763 -67.25 161.625 C-66.831 160.618 -66.411 159.612 -65.98 158.574 C-62.14 149.353 -58.302 140.131 -54.466 130.908 C-51.958 124.876 -49.448 118.844 -46.938 112.812 C-46.525 111.821 -46.112 110.829 -45.687 109.808 C-39.221 94.28 -32.693 78.779 -26.138 63.288 C-20.166 49.171 -14.247 35.034 -8.375 20.875 C-8.005 19.983 -7.634 19.09 -7.252 18.171 C-6.216 15.674 -5.182 13.177 -4.148 10.68 C-3.995 10.311 -3.995 10.311 -3.22 8.442 C-2.065 5.647 -0.957 2.871 0 0 Z M-7 156 C-15.368 175.61 -23.41 195.348 -31.375 215.125 C-31.626 215.748 -31.877 216.37 -32.135 217.012 C-34.39 222.613 -36.645 228.214 -38.899 233.815 C-42.506 242.778 -46.127 251.735 -49.762 260.687 C-52.154 266.579 -54.542 272.472 -56.932 278.365 C-57.692 280.24 -58.452 282.115 -59.213 283.99 C-61.955 290.751 -64.695 297.513 -67.432 304.277 C-68.331 306.497 -69.23 308.717 -70.131 310.937 C-76.604 326.893 -82.817 342.925 -89 359 C-35.21 359 18.58 359 74 359 C69.863 347.967 65.719 336.939 61.5 325.938 C61.191 325.132 60.883 324.327 60.565 323.498 C53.993 306.387 47.181 289.375 40.353 272.365 C30.398 247.563 30.398 247.563 26.534 237.485 C20.491 221.736 14.291 206.051 8.045 190.381 C6.934 187.594 5.826 184.805 4.72 182.016 C3.408 178.708 2.09 175.402 0.769 172.098 C0.036 170.261 -0.692 168.422 -1.421 166.583 C-1.863 165.481 -2.305 164.379 -2.76 163.243 C-3.146 162.275 -3.532 161.307 -3.929 160.31 C-5 158 -5 158 -7 156 Z " fill="#000000" transform="translate(868,759)"/>
<path d="M0 0 C42.516 -0.023 85.031 -0.04 127.547 -0.051 C132.561 -0.052 137.576 -0.054 142.59 -0.055 C143.589 -0.055 144.587 -0.055 145.616 -0.056 C161.8 -0.06 177.984 -0.068 194.169 -0.077 C210.764 -0.086 227.359 -0.092 243.955 -0.094 C254.203 -0.095 264.45 -0.1 274.698 -0.108 C281.717 -0.113 288.735 -0.115 295.754 -0.114 C299.809 -0.113 303.863 -0.114 307.918 -0.119 C311.625 -0.124 315.332 -0.124 319.04 -0.121 C321.026 -0.12 323.013 -0.125 325 -0.129 C326.167 -0.127 327.335 -0.125 328.538 -0.123 C329.045 -0.123 329.045 -0.123 331.61 -0.124 C334 0 334 0 336 1 C336.635 2.97 336.635 2.97 337.191 5.641 C337.41 6.671 337.628 7.701 337.853 8.762 C337.97 9.337 337.97 9.337 338.562 12.25 C338.812 13.448 339.062 14.645 339.319 15.879 C340.053 19.415 340.774 22.954 341.491 26.493 C342.045 29.22 342.602 31.947 343.159 34.674 C344.197 39.761 345.229 44.848 346.257 49.937 C346.669 51.978 347.082 54.019 347.496 56.06 C348.082 58.956 348.663 61.853 349.242 64.75 C349.42 65.625 349.598 66.5 349.781 67.401 C349.862 67.807 349.862 67.807 350.269 69.859 C350.411 70.565 350.553 71.272 350.699 71.999 C351 74 351 74 351 78 C347.352 77.369 344.124 76.369 340.688 75 C339.565 74.562 338.442 74.123 337.285 73.672 C336.63 73.416 335.976 73.16 335.301 72.896 C330.417 70.994 325.523 69.116 320.625 67.25 C319.591 66.849 318.557 66.448 317.491 66.035 C312.294 64.062 307.55 62.469 302 62 C302 61.34 302 60.68 302 60 C301.464 59.938 301.464 59.938 298.75 59.625 C294.277 59.073 289.853 58.301 285.418 57.5 C275.105 55.991 264.824 55.834 254.421 55.795 C252.748 55.785 251.074 55.775 249.401 55.764 C244.949 55.737 240.497 55.716 236.046 55.696 C231.857 55.676 227.668 55.651 223.48 55.627 C211.257 55.559 199.035 55.499 186.812 55.438 C159.484 55.293 132.156 55.149 104 55 C104 116.71 104 178.42 104 242 C176.6 242 249.2 242 324 242 C321.75 252.126 321.75 252.126 320.412 255.754 C320.115 256.567 319.818 257.381 319.512 258.219 C319.355 258.642 319.355 258.642 318.559 260.777 C318.231 261.67 317.903 262.562 317.565 263.482 C316.528 266.303 315.483 269.12 314.438 271.938 C313.732 273.855 313.027 275.772 312.322 277.689 C311.037 281.178 309.752 284.667 308.459 288.152 C308.33 288.5 308.33 288.5 307.676 290.264 C307 292 307 292 306 294 C239.34 294 172.68 294 104 294 C104 386.4 104 478.8 104 574 C134.092 573.876 164.184 573.753 195.188 573.625 C204.655 573.591 214.122 573.557 223.876 573.522 C235.524 573.468 235.524 573.468 240.994 573.44 C244.777 573.421 248.561 573.407 252.344 573.397 C257.196 573.384 262.048 573.362 266.9 573.333 C268.665 573.324 270.429 573.318 272.193 573.316 C288.789 573.292 305.721 572.653 321.875 568.562 C322.882 568.315 323.889 568.068 324.926 567.813 C341.566 563.519 358.249 557.578 373.934 550.588 C376.365 549.896 377.612 550.315 380 551 C377.456 560.861 374.902 570.718 372.332 580.572 C371.14 585.148 369.951 589.724 368.771 594.303 C367.633 598.721 366.484 603.136 365.328 607.55 C364.889 609.235 364.453 610.921 364.021 612.608 C363.416 614.969 362.798 617.326 362.177 619.683 C362 620.383 361.824 621.083 361.642 621.804 C360.691 625.356 360.003 627.801 357 630 C354.338 630.366 354.338 630.366 351.055 630.354 C350.431 630.355 350.431 630.355 347.269 630.361 C345.875 630.349 344.48 630.336 343.086 630.323 C341.611 630.32 340.136 630.318 338.661 630.318 C334.597 630.314 330.534 630.29 326.47 630.264 C322.092 630.238 317.713 630.231 313.335 630.221 C305.746 630.201 298.157 630.17 290.568 630.132 C279.595 630.077 268.623 630.038 257.65 630.004 C239.849 629.947 222.048 629.877 204.247 629.799 C186.952 629.723 169.657 629.653 152.362 629.592 C151.296 629.588 150.231 629.584 149.133 629.581 C143.788 629.562 138.442 629.543 133.097 629.524 C88.731 629.369 44.365 629.191 0 629 C0.463 627.434 0.927 625.868 1.393 624.302 C1.651 623.43 1.91 622.558 2.176 621.659 C2.958 619.134 3.816 616.652 4.719 614.168 C5.011 613.347 5.304 612.527 5.605 611.682 C6.188 610.057 6.784 608.437 7.395 606.822 C13.207 590.243 13.443 572.318 13.374 554.951 C13.377 552.811 13.381 550.671 13.386 548.531 C13.397 542.713 13.389 536.895 13.378 531.077 C13.369 524.779 13.377 518.48 13.383 512.181 C13.392 500.576 13.388 488.972 13.376 477.367 C13.366 466.643 13.361 455.919 13.363 445.195 C13.363 444.481 13.363 443.768 13.363 443.032 C13.363 440.135 13.363 437.238 13.364 434.34 C13.368 407.205 13.355 380.07 13.334 352.936 C13.316 328.872 13.31 304.808 13.316 280.744 C13.316 279.199 13.316 277.653 13.317 276.108 C13.317 275.344 13.317 274.58 13.317 273.793 C13.318 269.946 13.319 266.1 13.32 262.253 C13.32 261.494 13.32 260.735 13.32 259.953 C13.324 239.796 13.319 219.638 13.31 199.481 C13.309 197.31 13.308 195.139 13.307 192.968 C13.307 191.528 13.306 190.087 13.306 188.647 C13.301 178.643 13.301 168.638 13.303 158.633 C13.305 145.735 13.301 132.836 13.286 119.938 C13.278 113.726 13.274 107.513 13.279 101.301 C13.283 95.602 13.278 89.902 13.265 84.202 C13.262 82.154 13.263 80.105 13.267 78.056 C13.311 53.959 11.574 31.226 2.286 8.798 C0 3.271 0 3.271 0 0 Z " fill="#000000" transform="translate(3406,770)"/>
<path d="M0 0 C0.503 -0.005 0.503 -0.005 3.05 -0.03 C74.518 -0.581 141.261 16.248 201.246 56.238 C201.743 58.156 201.743 58.156 201.916 60.532 C201.988 61.426 202.059 62.32 202.133 63.241 C202.197 64.219 202.26 65.197 202.326 66.205 C202.403 67.23 202.48 68.255 202.56 69.311 C202.805 72.619 203.027 75.928 203.246 79.238 C203.392 81.356 203.539 83.475 203.685 85.593 C204.14 92.318 204.558 99.046 204.973 105.773 C205.127 108.237 205.281 110.701 205.435 113.165 C205.754 118.275 206.072 123.385 206.388 128.495 C206.792 135.04 207.201 141.584 207.612 148.128 C207.929 153.192 208.244 158.256 208.559 163.32 C208.709 165.735 208.86 168.15 209.011 170.565 C209.221 173.923 209.428 177.282 209.635 180.641 C209.698 181.63 209.76 182.62 209.824 183.64 C210.101 188.181 210.32 192.686 210.246 197.238 C209.586 197.238 208.926 197.238 208.246 197.238 C206.52 194.684 206.52 194.684 204.621 191.363 C203.989 190.273 203.358 189.182 202.707 188.059 C201.246 185.238 201.246 185.238 201.246 183.238 C200.586 182.908 199.926 182.578 199.246 182.238 C198.339 180.706 197.496 179.136 196.684 177.551 C188.314 161.868 177.647 147.836 166.246 134.238 C165.616 133.483 164.985 132.727 164.336 131.949 C161.662 128.811 159.026 125.949 155.809 123.363 C154.963 122.662 154.117 121.961 153.246 121.238 C153.246 120.578 153.246 119.918 153.246 119.238 C152.586 119.238 151.926 119.238 151.246 119.238 C150.607 118.434 149.967 117.63 149.309 116.801 C145.326 111.842 140.222 108.147 135.246 104.238 C134.23 103.43 133.215 102.622 132.168 101.789 C98.51 75.238 98.51 75.238 88.246 75.238 C88.246 74.578 88.246 73.918 88.246 73.238 C87.724 73.068 87.202 72.898 86.664 72.723 C82.456 71.337 78.278 69.896 74.121 68.363 C72.163 67.653 70.205 66.945 68.246 66.238 C67.135 65.834 66.024 65.429 64.879 65.012 C57.785 62.525 50.729 60.542 43.371 58.988 C42.599 58.825 41.827 58.662 41.031 58.494 C31.497 56.573 22.217 56.044 12.496 56.051 C11.313 56.052 10.13 56.052 8.912 56.053 C-9.74 56.181 -28.512 58.135 -46.629 62.676 C-47.616 62.922 -48.604 63.168 -49.621 63.422 C-73.477 69.639 -96.892 79.441 -116.754 94.238 C-117.292 94.638 -117.831 95.038 -118.386 95.451 C-143.893 114.549 -163.863 138.035 -178.754 166.238 C-179.214 167.109 -179.674 167.98 -180.148 168.877 C-198.323 203.834 -208.789 244.477 -208.957 283.973 C-208.964 285.076 -208.971 286.18 -208.978 287.317 C-208.996 290.874 -209.002 294.431 -209.004 297.988 C-209.005 299.203 -209.005 300.418 -209.006 301.67 C-208.99 320.061 -208.479 338.023 -205.754 356.238 C-205.588 357.409 -205.421 358.579 -205.25 359.785 C-198.36 407.304 -182.573 453.259 -155.754 493.238 C-155.53 493.574 -155.53 493.574 -154.396 495.27 C-148.437 504.09 -141.811 512.278 -134.754 520.238 C-134.513 520.511 -134.513 520.511 -133.292 521.891 C-100.059 559.248 -53.175 587.425 -2.754 592.238 C3.866 592.594 10.493 592.579 17.121 592.551 C18.026 592.549 18.932 592.546 19.865 592.544 C55.817 592.407 90.497 585.603 122.246 568.238 C122.558 568.07 122.558 568.07 124.135 567.216 C132.822 562.455 140.5 556.898 148.057 550.491 C148.692 549.954 149.326 549.417 149.98 548.863 C150.54 548.381 151.099 547.899 151.675 547.402 C153.246 546.238 153.246 546.238 156.246 545.238 C156.246 544.578 156.246 543.918 156.246 543.238 C157.574 541.969 157.574 541.969 159.496 540.426 C168.443 532.789 176.001 523.772 183.165 514.479 C186.756 509.823 190.503 505.326 194.328 500.86 C197.09 497.628 199.758 494.342 202.371 490.988 C206.295 486.023 210.681 481.613 215.246 477.238 C216.284 480.351 216.233 481.392 215.679 484.514 C215.603 484.95 215.603 484.95 215.22 487.156 C215.047 488.11 214.873 489.064 214.695 490.046 C214.606 490.55 214.606 490.55 214.158 493.097 C213.568 496.435 212.967 499.77 212.363 503.105 C211.948 505.421 211.532 507.736 211.117 510.052 C210.243 514.91 209.363 519.767 208.479 524.624 C207.347 530.847 206.241 537.074 205.14 543.303 C204.291 548.089 203.423 552.872 202.551 557.654 C202.135 559.948 201.726 562.244 201.324 564.541 C200.759 567.755 200.17 570.963 199.574 574.171 C199.412 575.121 199.251 576.071 199.085 577.05 C198.024 582.585 196.827 585.591 192.246 589.238 C191.535 589.826 190.823 590.414 190.09 591.02 C159.224 613.655 123.52 631.196 86.246 640.238 C85.557 640.406 84.867 640.574 84.157 640.747 C68.314 644.515 52.449 646.912 36.3 648.862 C34.54 649.079 32.781 649.307 31.026 649.564 C25.003 650.443 19.005 650.385 12.934 650.363 C11.85 650.367 10.767 650.371 9.65 650.375 C8.613 650.374 7.576 650.372 6.508 650.371 C5.569 650.37 4.63 650.369 3.663 650.368 C1.246 650.238 1.246 650.238 -1.754 649.238 C-3.366 649.069 -4.983 648.943 -6.602 648.844 C-7.586 648.777 -8.571 648.711 -9.586 648.643 C-10.119 648.607 -10.119 648.607 -12.816 648.426 C-30.58 647.119 -48.11 644.266 -65.582 640.852 C-68.632 640.262 -71.687 639.735 -74.754 639.238 C-74.754 638.578 -74.754 637.918 -74.754 637.238 C-75.057 637.225 -75.057 637.225 -76.59 637.16 C-77.428 637.103 -78.266 637.047 -79.129 636.988 C-79.535 636.965 -79.535 636.965 -81.59 636.848 C-85.32 636.129 -88.53 634.794 -92.028 633.339 C-95.654 631.875 -99.343 630.643 -103.049 629.398 C-113.326 625.943 -123.066 622.104 -132.754 617.238 C-134.079 616.592 -135.404 615.948 -136.73 615.305 C-154.75 606.506 -171.604 596.113 -187.754 584.238 C-188.314 583.827 -188.874 583.415 -189.451 582.991 C-196.789 577.563 -203.594 571.794 -210.195 565.488 C-212.4 563.55 -214.148 562.47 -216.754 561.238 C-218.116 559.595 -219.453 557.93 -220.754 556.238 C-221.414 555.908 -222.074 555.578 -222.754 555.238 C-222.754 554.578 -222.754 553.918 -222.754 553.238 C-223.414 553.238 -224.074 553.238 -224.754 553.238 C-226.016 551.988 -226.016 551.988 -227.441 550.238 C-229.527 547.719 -231.635 545.238 -233.816 542.801 C-261.891 510.592 -283.1 474.301 -296.754 433.801 C-297.152 432.62 -297.551 431.44 -297.961 430.224 C-298.326 429.116 -298.691 428.009 -299.066 426.867 C-299.393 425.878 -299.719 424.889 -300.055 423.869 C-300.754 421.238 -300.754 421.238 -300.754 417.238 C-301.414 416.908 -302.074 416.578 -302.754 416.238 C-302.424 415.248 -302.094 414.258 -301.754 413.238 C-302.414 412.908 -303.074 412.578 -303.754 412.238 C-304.316 409.948 -304.316 409.948 -304.754 406.945 C-304.919 405.856 -305.084 404.766 -305.254 403.643 C-305.419 402.519 -305.584 401.396 -305.754 400.238 C-306.084 398.2 -306.417 396.162 -306.754 394.125 C-307.088 392.059 -307.421 389.992 -307.754 387.926 C-307.919 386.913 -308.084 385.901 -308.254 384.857 C-308.769 381.653 -309.265 378.447 -309.754 375.238 C-309.939 374.049 -310.125 372.861 -310.315 371.636 C-311.615 362.75 -312.069 354.088 -312.004 345.113 C-312.001 344.431 -311.998 343.749 -311.995 343.046 C-311.871 319.564 -310.083 296.336 -305.754 273.238 C-305.564 272.223 -305.374 271.208 -305.178 270.163 C-299.599 241.495 -289.873 213.306 -276.754 187.238 C-276.517 186.758 -276.517 186.758 -275.317 184.325 C-268.391 170.313 -260.604 157.117 -251.754 144.238 C-251.292 143.564 -250.83 142.89 -250.354 142.195 C-244.863 134.227 -238.994 126.637 -232.754 119.238 C-232.36 118.752 -232.36 118.752 -230.367 116.289 C-223.613 108.048 -216.201 100.471 -208.691 92.926 C-208.185 92.414 -207.678 91.902 -207.156 91.375 C-200.36 84.524 -193.328 78.238 -185.754 72.238 C-184.51 71.214 -183.269 70.187 -182.031 69.156 C-167.61 57.303 -151.976 47.428 -135.754 38.238 C-135.167 37.899 -134.58 37.559 -133.975 37.209 C-94.38 14.384 -45.817 0.37 0 0 Z " fill="#000000" transform="translate(365.75390625,758.76171875)"/>
<path d="M0 0 C0.958 -0.003 1.915 -0.006 2.902 -0.009 C3.961 -0.007 5.021 -0.004 6.112 -0.002 C7.221 -0.004 8.33 -0.006 9.472 -0.008 C13.158 -0.012 16.844 -0.009 20.53 -0.006 C23.08 -0.007 25.63 -0.007 28.179 -0.009 C33.532 -0.01 38.884 -0.008 44.237 -0.003 C50.43 0.002 56.624 0 62.817 -0.005 C68.766 -0.01 74.716 -0.01 80.666 -0.007 C83.201 -0.006 85.737 -0.007 88.272 -0.009 C91.811 -0.012 95.35 -0.008 98.889 -0.002 C99.947 -0.004 101.004 -0.006 102.093 -0.009 C103.054 -0.006 104.014 -0.003 105.004 0 C105.841 0 106.679 0.001 107.542 0.001 C109.565 0.127 109.565 0.127 111.565 1.127 C111.486 1.389 111.486 1.389 111.085 2.717 C110.569 4.429 110.06 6.143 109.554 7.857 C108.851 10.182 108.116 12.496 107.358 14.803 C104.806 22.725 102.97 30.567 101.815 38.814 C101.7 39.613 101.585 40.411 101.466 41.233 C99.252 58.613 99.415 76.34 99.407 93.83 C99.403 95.92 99.398 98.01 99.392 100.099 C99.379 105.773 99.371 111.447 99.365 117.121 C99.357 123.265 99.343 129.409 99.33 135.554 C99.308 146.176 99.29 156.799 99.274 167.421 C99.258 178.551 99.239 189.68 99.218 200.81 C99.217 201.504 99.216 202.199 99.214 202.914 C99.208 206.441 99.201 209.969 99.194 213.496 C99.146 238.419 99.103 263.341 99.063 288.264 C99.023 312.462 98.982 336.66 98.938 360.858 C98.936 361.605 98.935 362.352 98.934 363.122 C98.92 370.626 98.906 378.129 98.892 385.633 C98.864 400.915 98.837 416.198 98.809 431.481 C98.808 432.184 98.806 432.886 98.805 433.61 C98.721 480.449 98.642 527.288 98.565 574.127 C117.517 574.043 136.468 573.947 155.419 573.839 C164.221 573.79 173.023 573.743 181.824 573.705 C189.505 573.672 197.186 573.632 204.867 573.584 C208.925 573.559 212.983 573.537 217.042 573.524 C255.569 573.388 287.577 567.302 323.6 553.734 C324.236 553.496 324.873 553.258 325.529 553.013 C327.278 552.36 329.025 551.701 330.772 551.042 C333.565 550.127 333.565 550.127 336.565 550.127 C335.152 558.92 333.019 567.463 330.722 576.061 C330.348 577.47 329.974 578.88 329.601 580.289 C328.824 583.221 328.044 586.151 327.261 589.081 C326.26 592.831 325.267 596.582 324.276 600.335 C323.508 603.236 322.737 606.136 321.964 609.036 C321.596 610.42 321.229 611.804 320.864 613.188 C320.354 615.117 319.838 617.045 319.321 618.972 C319.03 620.067 318.738 621.162 318.438 622.29 C317.565 625.127 317.565 625.127 315.565 629.127 C209.635 629.127 103.705 629.127 -5.435 629.127 C-3.785 624.177 -3.785 624.177 4.565 599.127 C7.554 585.615 7.995 572.877 7.946 559.11 C7.95 556.937 7.955 554.764 7.96 552.591 C7.973 546.668 7.967 540.744 7.957 534.821 C7.951 528.414 7.961 522.007 7.969 515.599 C7.982 503.788 7.981 491.977 7.973 480.166 C7.965 469.249 7.963 458.332 7.967 447.415 C7.967 446.689 7.967 445.963 7.967 445.215 C7.968 442.267 7.969 439.319 7.97 436.372 C7.98 408.751 7.971 381.131 7.955 353.511 C7.941 329.018 7.942 304.525 7.956 280.032 C7.973 252.468 7.979 224.904 7.97 197.339 C7.969 194.396 7.968 191.452 7.967 188.508 C7.967 187.783 7.966 187.059 7.966 186.312 C7.963 175.41 7.967 164.509 7.974 153.607 C7.983 141.196 7.98 128.785 7.964 116.375 C7.957 110.051 7.953 103.727 7.963 97.403 C7.972 91.599 7.967 85.795 7.951 79.991 C7.948 77.907 7.95 75.822 7.957 73.737 C8.018 54.954 7.168 35.81 0.503 18.064 C0.152 17.074 -0.2 16.083 -0.562 15.063 C-1.221 13.206 -1.889 11.352 -2.568 9.501 C-3.58 6.728 -4.521 3.934 -5.435 1.127 C-3.844 -0.464 -2.206 0.001 0 0 Z " fill="#000000" transform="translate(2812.4346771240234,769.8730163574219)"/>
<path d="M0 0 C38.28 0 76.56 0 116 0 C117 2 117 2 116.427 4.024 C116.105 4.847 115.784 5.669 115.453 6.516 C115.104 7.43 114.755 8.344 114.395 9.286 C114.206 9.775 114.206 9.775 113.25 12.25 C105.126 34.017 103.691 55.599 103.746 78.664 C103.744 80.786 103.741 82.908 103.737 85.031 C103.728 90.809 103.732 96.588 103.739 102.367 C103.743 108.62 103.736 114.873 103.731 121.126 C103.722 132.65 103.723 144.174 103.728 155.698 C103.733 166.347 103.735 176.996 103.732 187.645 C103.732 188.354 103.732 189.062 103.732 189.792 C103.731 192.668 103.731 195.544 103.73 198.42 C103.724 225.361 103.729 252.302 103.74 279.243 C103.75 303.139 103.749 327.035 103.739 350.93 C103.729 377.823 103.724 404.715 103.73 431.608 C103.731 434.479 103.732 437.35 103.732 440.221 C103.732 440.574 103.732 440.574 103.733 442.363 C103.735 453 103.732 463.638 103.727 474.275 C103.722 486.381 103.723 498.486 103.734 510.592 C103.739 516.762 103.741 522.931 103.735 529.101 C103.729 534.76 103.732 540.42 103.743 546.079 C103.745 548.115 103.744 550.15 103.739 552.185 C103.677 579.998 108.06 602.179 117 629 C78.39 629 39.78 629 0 629 C1.674 623.978 3.304 619.127 5.245 614.235 C16.973 584.368 14.297 550.701 14.261 519.176 C14.257 513.125 14.264 507.073 14.269 501.021 C14.278 489.88 14.277 478.739 14.272 467.597 C14.267 457.301 14.265 447.004 14.268 436.707 C14.268 436.021 14.268 435.334 14.268 434.627 C14.269 431.841 14.269 429.054 14.27 426.268 C14.276 400.193 14.271 374.118 14.26 348.043 C14.25 324.938 14.251 301.834 14.261 278.729 C14.271 252.698 14.276 226.667 14.27 200.636 C14.269 197.855 14.268 195.074 14.268 192.293 C14.267 191.609 14.267 190.924 14.267 190.219 C14.265 179.935 14.268 169.651 14.273 159.367 C14.278 147.66 14.277 135.952 14.266 124.245 C14.261 118.283 14.259 112.322 14.265 106.36 C14.336 37.302 14.336 37.302 2.642 9.559 C2.472 9.154 2.472 9.154 1.609 7.105 C1.3 6.385 0.99 5.665 0.671 4.923 C0 3 0 3 0 0 Z " fill="#000000" transform="translate(3188,770)"/>
<path d="M0 0 C4.161 3.567 6.255 6.604 7.008 11.984 C7.629 27.976 -1.497 40.139 -11.75 51.5 C-16.86 56.987 -22.418 61.71 -28.375 66.25 C-29.46 67.109 -30.544 67.969 -31.629 68.828 C-47.823 81.416 -66.154 90.307 -85.375 97.25 C-86.45 97.657 -87.525 98.065 -88.633 98.484 C-105.091 104.19 -122.814 107.699 -139.375 101.25 C-140.272 100.956 -141.169 100.662 -142.094 100.359 C-146.332 98.298 -148.297 94.34 -150.375 90.25 C-152.982 82.278 -150.186 74.629 -146.812 67.375 C-143.422 60.936 -139.27 55.613 -134.375 50.25 C-133.885 49.711 -133.396 49.172 -132.891 48.617 C-123.737 38.671 -113.573 30.772 -102.375 23.25 C-101.31 22.523 -100.245 21.796 -99.148 21.047 C-83.3 10.76 -65.635 3.017 -47.375 -1.75 C-46.107 -2.088 -44.838 -2.425 -43.531 -2.773 C-29.088 -6.137 -13.415 -6.956 0 0 Z " fill="#000000" transform="translate(3336.375,562.75)"/>
</svg>
