<?xml version="1.0" encoding="UTF-8"?>
<!-- Generator: visioncortex VTracer 0.6.12 -->
<svg version="1.1" xmlns="http://www.w3.org/2000/svg" width="1486" height="743">
<path d="M0 0 C5.94 -0.274 11.877 -0.472 17.822 -0.604 C19.84 -0.659 21.858 -0.734 23.874 -0.83 C41.539 -1.647 41.539 -1.647 46.46 2.311 C48.994 5.085 50.993 7.831 53 11 C54.439 12.787 55.895 14.56 57.375 16.312 C58.107 17.219 58.839 18.125 59.594 19.059 C62.306 22.374 65.081 25.629 67.875 28.875 C73.16 35.017 78.405 41.191 83.632 47.382 C85.025 49.029 86.42 50.673 87.816 52.316 C92.049 57.3 96.257 62.296 100.375 67.375 C104.542 72.498 108.863 77.476 113.203 82.453 C116.365 86.087 119.468 89.755 122.5 93.5 C128.189 100.454 134.116 107.21 140 114 C140 78.03 140 42.06 140 5 C139.34 4.67 139.34 4.67 136 3 C136 2.01 136 1.02 136 0 C153.82 0 171.64 0 190 0 C190 0.99 190 1.98 190 3 C188.68 3.33 187.36 3.66 186 4 C186 64.06 186 124.12 186 186 C187.32 186.33 188.64 186.66 190 187 C190 187.99 190 188.98 190 190 C184.06 190.274 178.123 190.472 172.178 190.604 C170.16 190.659 168.142 190.734 166.126 190.83 C148.461 191.647 148.461 191.647 143.54 187.689 C141.006 184.915 139.007 182.169 137 179 C135.561 177.213 134.105 175.44 132.625 173.688 C131.893 172.781 131.161 171.875 130.406 170.941 C127.694 167.626 124.919 164.371 122.125 161.125 C116.837 154.98 111.589 148.803 106.359 142.609 C104.075 139.904 101.787 137.202 99.5 134.5 C98.583 133.417 97.667 132.333 96.75 131.25 C96.296 130.714 95.842 130.178 95.375 129.625 C94 128 92.625 126.375 91.25 124.75 C90.796 124.214 90.342 123.677 89.875 123.125 C88.959 122.043 88.044 120.961 87.129 119.879 C84.816 117.144 82.5 114.41 80.18 111.68 C75.949 106.697 71.741 101.703 67.625 96.625 C61.882 89.64 55.923 82.834 50 76 C50 112.3 50 148.6 50 186 C51.32 186.33 52.64 186.66 54 187 C54 187.99 54 188.98 54 190 C36.18 190 18.36 190 0 190 C0 189.01 0 188.02 0 187 C0.66 186.67 0.66 186.67 4 185 C4 125.27 4 65.54 4 4 C2.68 3.67 1.36 3.34 0 3 C0 2.01 0 1.02 0 0 Z " fill="#000000" transform="translate(1292,213)"/>
<path d="M0 0 C16.135 -0.07 32.269 -0.123 48.404 -0.155 C55.898 -0.171 63.391 -0.192 70.885 -0.226 C77.424 -0.256 83.963 -0.276 90.502 -0.282 C93.958 -0.286 97.413 -0.295 100.868 -0.317 C127.592 -0.469 151.987 0.945 172.688 19.938 C184.18 31.842 188.416 46.444 188.366 62.651 C188.111 76.738 182.665 88.576 173.188 98.984 C167.674 104.065 157.703 113 150 113 C158.595 127.707 167.213 142.4 175.898 157.054 C176.706 158.418 177.513 159.782 178.32 161.146 C182.117 167.564 185.936 173.968 189.867 180.305 C190.402 181.168 190.937 182.032 191.488 182.921 C193 185 193 185 196 187 C196 187.99 196 188.98 196 190 C177.19 190 158.38 190 139 190 C139 189.01 139 188.02 139 187 C139.66 186.67 140.32 186.34 141 186 C139.425 180.319 136.644 175.608 133.688 170.562 C132.602 168.688 131.518 166.813 130.434 164.938 C129.87 163.966 129.307 162.994 128.726 161.992 C125.866 157.035 123.059 152.048 120.25 147.062 C118.718 144.344 117.189 141.637 115.572 138.968 C114 136 114 136 112.85 132.243 C111.398 127.972 109.877 124.53 106 122 C96.717 119.447 86.501 120.379 77 120.625 C72.38 120.687 72.38 120.687 49 121 C49.33 142.45 49.66 163.9 50 186 C51.32 186.33 52.64 186.66 54 187 C54 187.99 54 188.98 54 190 C36.18 190 18.36 190 0 190 C0 189.01 0 188.02 0 187 C0.66 186.67 0.66 186.67 4 185 C4 125.6 4 66.2 4 5 C2.68 4.34 1.36 3.68 0 3 C0 2.01 0 1.02 0 0 Z M49 36 C49 52.17 49 68.34 49 85 C65.988 85.12 65.988 85.12 73.297 85.146 C78.261 85.164 83.224 85.185 88.188 85.226 C92.195 85.259 96.202 85.277 100.209 85.285 C101.728 85.29 103.248 85.301 104.768 85.317 C116.307 85.436 128.129 85.411 137.383 77.598 C142.525 72.518 144.845 66.906 145.07 59.77 C144.628 52.204 141.181 46.815 135.75 41.688 C126.839 34.868 116.621 35.6 105.934 35.707 C104.287 35.713 102.641 35.717 100.995 35.72 C96.689 35.731 92.384 35.761 88.078 35.794 C82.898 35.83 77.717 35.844 72.537 35.861 C64.691 35.89 56.846 35.948 49 36 Z " fill="#000000" transform="translate(477,213)"/>
<path d="M0 0 C14.127 -0.071 28.254 -0.123 42.382 -0.155 C48.943 -0.171 55.505 -0.192 62.067 -0.226 C68.415 -0.259 74.762 -0.277 81.11 -0.285 C83.516 -0.29 85.923 -0.301 88.329 -0.317 C118.563 -0.514 147.641 2.973 171 24 C171.672 24.579 172.343 25.158 173.035 25.754 C189.322 40.745 198.399 63.679 199.91 85.5 C199.94 86.325 199.969 87.15 200 88 C200.04 89.052 200.08 90.104 200.121 91.188 C200.621 117.52 192.932 143.217 174.8 162.72 C157.694 180.32 133.74 189.254 109.397 190.089 C106.497 190.122 103.598 190.124 100.697 190.114 C99.603 190.114 98.51 190.114 97.383 190.114 C93.796 190.113 90.208 190.106 86.621 190.098 C84.123 190.096 81.625 190.094 79.126 190.093 C73.241 190.09 67.355 190.082 61.469 190.072 C54.104 190.06 46.738 190.054 39.373 190.049 C26.249 190.038 13.124 190.021 0 190 C0 189.01 0 188.02 0 187 C1.32 186.67 2.64 186.34 4 186 C4 125.94 4 65.88 4 4 C2.68 3.67 1.36 3.34 0 3 C0 2.01 0 1.02 0 0 Z M48 37 C48 75.28 48 113.56 48 153 C57.941 153.082 67.882 153.165 78.125 153.25 C81.234 153.286 84.344 153.323 87.547 153.36 C90.055 153.372 92.563 153.382 95.07 153.391 C95.704 153.401 95.704 153.401 98.91 153.453 C111.566 153.458 122.999 151.024 133 143 C133.686 142.487 134.372 141.974 135.078 141.445 C145.931 132.788 151.774 119.46 154 106 C155.642 87.254 153.18 69.531 141.312 54.312 C131.433 43.581 118.297 37.625 103.827 36.824 C100.255 36.77 96.689 36.775 93.117 36.805 C92.542 36.806 92.542 36.806 89.633 36.811 C85.38 36.821 81.128 36.849 76.875 36.875 C67.346 36.916 57.817 36.958 48 37 Z " fill="#000000" transform="translate(4,213)"/>
<path d="M0 0 C17.49 0 34.98 0 53 0 C52.67 1.32 52.34 2.64 52 4 C51.34 4.33 50.68 4.66 50 5 C48.924 8.227 48.843 10.637 48.795 14.032 C48.774 15.29 48.754 16.549 48.734 17.845 C48.717 19.182 48.7 20.519 48.684 21.855 C48.665 23.071 48.646 24.287 48.627 25.54 C48.559 30.089 48.499 34.638 48.438 39.188 C48.293 49.356 48.149 59.524 48 70 C78.03 70 108.06 70 139 70 C138.67 48.22 138.34 26.44 138 4 C137.34 3.835 137.34 3.835 134 3 C134 2.01 134 1.02 134 0 C151.82 0 169.64 0 188 0 C188 0.99 188 1.98 188 3 C186.68 3.33 185.36 3.66 184 4 C184 64.06 184 124.12 184 186 C185.32 186.33 186.64 186.66 188 187 C188 187.99 188 188.98 188 190 C170.18 190 152.36 190 134 190 C134 189.01 134 188.02 134 187 C135.32 186.67 136.64 186.34 138 186 C138.165 172.8 138.165 172.8 139 106 C108.97 106 78.94 106 48 106 C48.144 118.478 48.289 130.956 48.438 143.812 C48.481 147.753 48.524 151.693 48.568 155.753 C48.627 160.564 48.627 160.564 48.656 162.816 C48.675 164.389 48.692 165.962 48.708 167.535 C48.733 169.918 48.763 172.3 48.795 174.683 C48.8 175.384 48.806 176.085 48.812 176.808 C48.858 179.81 49.043 182.128 50 185 C50.99 185.66 51.98 186.32 53 187 C53 187.99 53 188.98 53 190 C35.51 190 18.02 190 0 190 C0.165 189.34 0.165 189.34 1 186 C1.66 185.67 2.32 185.34 3 185 C4.168 181.495 4.126 178.754 4.127 175.054 C4.129 174.343 4.13 173.632 4.132 172.899 C4.136 170.511 4.133 168.123 4.129 165.734 C4.131 164.025 4.133 162.315 4.135 160.605 C4.139 155.956 4.137 151.308 4.134 146.659 C4.132 141.8 4.134 136.94 4.136 132.081 C4.138 123.92 4.135 115.759 4.13 107.598 C4.125 98.155 4.127 88.713 4.132 79.27 C4.137 71.171 4.137 63.071 4.135 54.972 C4.133 50.131 4.133 45.29 4.136 40.45 C4.139 35.899 4.137 31.349 4.131 26.798 C4.13 25.126 4.13 23.453 4.133 21.781 C4.135 19.502 4.132 17.224 4.127 14.946 C4.127 13.67 4.126 12.393 4.126 11.078 C4 8 4 8 3 5 C2.01 4.34 1.02 3.68 0 3 C0 2.01 0 1.02 0 0 Z " fill="#000000" transform="translate(950,213)"/>
<path d="M0 0 C16.083 -0.094 32.166 -0.164 48.249 -0.207 C55.719 -0.228 63.188 -0.256 70.658 -0.302 C77.179 -0.342 83.699 -0.368 90.22 -0.376 C93.664 -0.382 97.107 -0.393 100.551 -0.423 C126.11 -0.618 151.327 0.635 171 19 C171.61 19.568 172.219 20.137 172.848 20.723 C183.048 31.282 188.008 46.068 188.375 60.5 C187.937 78.411 180.642 91.828 168 104 C145.38 124.222 112.531 121.295 84.315 121.137 C80.211 121.117 76.108 121.108 72.004 121.098 C64.003 121.076 56.001 121.042 48 121 C48.038 129.015 48.097 137.029 48.184 145.044 C48.223 148.766 48.256 152.487 48.271 156.209 C48.286 159.801 48.321 163.393 48.368 166.985 C48.383 168.355 48.391 169.725 48.392 171.095 C48.394 173.015 48.424 174.935 48.454 176.854 C48.463 177.947 48.472 179.04 48.481 180.165 C49.118 183.643 50.449 184.66 53 187 C53 187.99 53 188.98 53 190 C35.51 190 18.02 190 0 190 C1 186 1 186 2.538 184.688 C4.864 182.002 4.381 179.473 4.388 175.985 C4.393 175.266 4.398 174.548 4.404 173.807 C4.418 171.394 4.411 168.98 4.404 166.567 C4.41 164.839 4.417 163.111 4.425 161.383 C4.443 156.685 4.442 151.986 4.436 147.288 C4.433 143.369 4.439 139.45 4.445 135.531 C4.459 126.286 4.457 117.042 4.446 107.798 C4.435 98.254 4.449 88.711 4.475 79.167 C4.498 70.98 4.504 62.792 4.498 54.604 C4.495 49.711 4.497 44.819 4.515 39.926 C4.53 35.325 4.526 30.725 4.507 26.124 C4.504 24.434 4.507 22.744 4.517 21.055 C4.53 18.75 4.519 16.447 4.501 14.142 C4.501 12.852 4.501 11.562 4.501 10.232 C3.911 6.427 2.812 5.487 0 3 C0 2.01 0 1.02 0 0 Z M48 36 C48 52.17 48 68.34 48 85 C64.489 85.08 64.489 85.08 71.586 85.098 C76.405 85.11 81.223 85.124 86.042 85.151 C89.932 85.173 93.823 85.185 97.713 85.19 C99.188 85.193 100.663 85.201 102.138 85.211 C128.195 85.396 128.195 85.396 137.492 76.586 C142.367 71.191 144.566 65.447 144.285 58.266 C143.495 51.99 140.932 46.117 136 42 C128.8 37.676 123.141 35.872 114.753 35.886 C114.031 35.886 113.308 35.886 112.564 35.886 C110.183 35.887 107.803 35.895 105.422 35.902 C103.768 35.904 102.115 35.906 100.462 35.907 C96.115 35.91 91.768 35.92 87.422 35.931 C82.204 35.943 76.986 35.948 71.768 35.954 C63.845 35.963 55.923 35.983 48 36 Z " fill="#000000" transform="translate(722,213)"/>
<path d="M0 0 C15.51 0 31.02 0 47 0 C46.67 1.98 46.34 3.96 46 6 C46.965 8.899 46.965 8.899 48.508 11.945 C49.075 13.089 49.643 14.233 50.228 15.412 C50.536 16.016 50.844 16.619 51.162 17.241 C52.483 19.825 53.769 22.427 55.057 25.027 C55.726 26.375 56.396 27.723 57.068 29.069 C60.264 35.484 63.267 41.983 66.25 48.5 C71.721 60.386 77.426 72.149 83.175 83.903 C88.057 93.888 92.859 103.899 97.5 114 C102.599 125.096 107.893 136.089 113.25 147.062 C113.639 147.859 114.027 148.655 114.428 149.476 C115.935 152.566 117.443 155.656 118.952 158.746 C121.864 164.716 124.764 170.692 127.625 176.688 C127.985 177.435 128.345 178.182 128.716 178.951 C131 183.764 131 183.764 131 186 C132.32 186.33 133.64 186.66 135 187 C135 187.99 135 188.98 135 190 C116.52 190 98.04 190 79 190 C79 189.01 79 188.02 79 187 C79.99 186.67 80.98 186.34 82 186 C77.986 173.958 72.192 162.582 67 151 C37.63 150.67 8.26 150.34 -22 150 C-22.99 152.97 -23.98 155.94 -25 159 C-25.866 161.107 -26.763 163.201 -27.699 165.277 C-28.186 166.367 -28.672 167.457 -29.174 168.58 C-29.673 169.688 -30.173 170.796 -30.688 171.938 C-31.695 174.174 -32.699 176.412 -33.699 178.652 C-34.141 179.632 -34.583 180.612 -35.038 181.621 C-36 184 -36 184 -36 186 C-35.01 186.33 -34.02 186.66 -33 187 C-33 187.99 -33 188.98 -33 190 C-51.15 190 -69.3 190 -88 190 C-88 189.01 -88 188.02 -88 187 C-87.383 186.743 -86.766 186.486 -86.13 186.222 C-83.702 184.829 -83.111 183.941 -81.916 181.454 C-81.558 180.722 -81.199 179.991 -80.829 179.237 C-80.454 178.44 -80.078 177.642 -79.691 176.82 C-79.49 176.405 -79.49 176.405 -78.471 174.303 C-77.156 171.582 -75.859 168.854 -74.562 166.125 C-73.653 164.234 -72.743 162.344 -71.833 160.454 C-66.41 149.177 -61.094 137.851 -55.873 126.479 C-51.392 116.748 -46.707 107.123 -42 97.5 C-36.194 85.631 -30.504 73.725 -24.992 61.715 C-19.553 49.919 -13.831 38.261 -8.09 26.609 C-4.438 19.176 -0.856 11.786 2 4 C1.67 3.835 1.67 3.835 0 3 C0 2.01 0 1.02 0 0 Z M22 50 C19.457 55.739 16.916 61.478 14.377 67.218 C13.517 69.16 12.657 71.102 11.797 73.044 C7.114 83.612 2.456 94.19 -2.129 104.801 C-2.519 105.697 -2.91 106.594 -3.312 107.518 C-3.666 108.341 -4.02 109.165 -4.385 110.013 C-4.542 110.375 -4.542 110.375 -5.334 112.207 C-6 114 -6 114 -6 116 C13.14 116 32.28 116 52 116 C43.939 96.422 43.939 96.422 40.266 88.145 C39.861 87.228 39.456 86.312 39.039 85.368 C38.2 83.47 37.36 81.573 36.519 79.676 C35.235 76.779 33.955 73.881 32.676 70.982 C31.852 69.12 31.028 67.257 30.203 65.395 C29.825 64.538 29.447 63.682 29.057 62.8 C27.139 58.477 25.159 54.21 23 50 C22.67 50 22.34 50 22 50 Z " fill="#000000" transform="translate(310,213)"/>
<path d="M0 0 C17.82 0 35.64 0 54 0 C54 0.99 54 1.98 54 3 C52.68 3.33 51.36 3.66 50 4 C50 64.06 50 124.12 50 186 C51.32 186.33 52.64 186.66 54 187 C54 187.99 54 188.98 54 190 C36.18 190 18.36 190 0 190 C0 189.01 0 188.02 0 187 C0.66 186.67 0.66 186.67 4 185 C4 125.6 4 66.2 4 5 C2.68 4.34 1.36 3.68 0 3 C0 2.01 0 1.02 0 0 Z " fill="#000000" transform="translate(1188,213)"/>
<path d="M0 0 C5.919 -0.082 11.839 -0.165 17.938 -0.25 C19.787 -0.286 21.637 -0.323 23.543 -0.36 C39.708 -0.547 39.708 -0.547 46 4 C50.764 8.886 52.312 12.963 52.438 19.75 C52.323 26.222 51.502 30.308 47 35 C45.637 35.954 44.239 36.86 42.812 37.715 C42.097 38.148 41.382 38.581 40.645 39.027 C40.102 39.348 39.559 39.669 39 40 C39.383 40.519 39.767 41.038 40.162 41.573 C41.905 43.94 43.64 46.314 45.375 48.688 C45.978 49.504 46.582 50.321 47.203 51.162 C47.783 51.958 48.363 52.754 48.961 53.574 C49.495 54.302 50.029 55.03 50.58 55.78 C52.07 58.11 53.055 60.406 54 63 C49.053 63.975 44.915 64.247 40 63 C34.268 58.302 30.626 50.969 27.117 44.562 C25 42 25 42 21.766 41.195 C18.51 41.13 15.255 41.065 12 41 C12 48.26 12 55.52 12 63 C8.04 63 4.08 63 0 63 C0 42.21 0 21.42 0 0 Z M12 10 C12 16.93 12 23.86 12 31 C13.33 31.021 13.33 31.021 20.062 31.125 C20.474 31.134 20.474 31.134 22.559 31.18 C28.487 31.224 33.846 30.933 38.438 26.812 C40.446 23.197 40.583 21.083 40 17 C38.055 13.352 36.583 12.235 32.75 10.688 C26.018 9.313 18.806 9.887 12 10 Z " fill="#000000" transform="translate(738,466)"/>
<path d="M0 0 C3.63 0 7.26 0 11 0 C15.464 8.667 19.477 17.478 23.312 26.438 C23.878 27.752 24.444 29.067 25.01 30.382 C26.14 33.006 27.268 35.632 28.395 38.259 C29.872 41.704 31.357 45.145 32.844 48.586 C33.667 50.495 34.49 52.404 35.312 54.312 C35.502 54.751 35.502 54.751 36.46 56.969 C39 62.885 39 62.885 39 64 C34.71 64 30.42 64 26 64 C24.995 61.877 23.996 59.752 23 57.625 C22.443 56.442 21.886 55.258 21.312 54.039 C20 51 20 51 20 49 C10.43 49.33 0.86 49.66 -9 50 C-10.98 54.62 -12.96 59.24 -15 64 C-19.29 64 -23.58 64 -28 64 C-23.171 52.092 -18.125 40.29 -12.946 28.53 C-11.735 25.778 -10.527 23.025 -9.32 20.271 C-8.542 18.5 -7.763 16.728 -6.984 14.957 C-6.628 14.145 -6.272 13.332 -5.905 12.495 C-4.042 8.271 -2.107 4.11 0 0 Z M5 16 C3.868 18.351 2.745 20.706 1.625 23.062 C1.466 23.391 1.466 23.391 0.664 25.053 C0.509 25.38 0.509 25.38 -0.273 27.035 C-0.556 27.627 -0.839 28.219 -1.13 28.828 C-2.321 31.802 -3.12 34.92 -4 38 C2.27 38 8.54 38 15 38 C12.185 30.571 9.335 23.211 6 16 C5.67 16 5.34 16 5 16 Z " fill="#000000" transform="translate(654,465)"/>
<path d="M0 0 C2.12 1.251 4.045 2.65 5.98 4.168 C4.587 8.603 2.375 11.042 -1.02 14.168 C-1.649 13.819 -2.278 13.469 -2.926 13.109 C-9.199 9.774 -14.702 6.948 -21.895 8.98 C-24.02 10.168 -24.02 10.168 -26.02 12.168 C-26.145 15.793 -26.145 15.793 -26.02 19.168 C-24.865 19.56 -23.71 19.952 -22.52 20.355 C-21.707 20.631 -20.895 20.907 -20.059 21.191 C-17.746 21.934 -15.443 22.618 -13.105 23.27 C2.483 27.694 2.483 27.694 7.418 35.418 C8.539 40.901 8.665 46.074 6.918 51.418 C2.947 57.054 -1.317 60.375 -8.02 62.168 C-18.89 63.3 -29.204 61.794 -38.27 55.418 C-39.177 54.675 -40.085 53.933 -41.02 53.168 C-40.172 48.687 -37.999 46.53 -35.02 43.168 C-32.907 44.198 -30.855 45.265 -28.828 46.457 C-22.559 49.989 -17.202 51.258 -10.02 50.168 C-7.746 49.367 -7.746 49.367 -6.02 48.168 C-5.27 44.543 -5.27 44.543 -5.02 41.168 C-7.791 38.891 -10.078 37.652 -13.539 36.738 C-14.397 36.5 -15.255 36.261 -16.139 36.016 C-17.921 35.537 -19.705 35.063 -21.49 34.594 C-28.277 32.695 -33.699 30.387 -37.957 24.48 C-39.882 18.478 -40.018 12.695 -37.457 6.855 C-30.271 -5.823 -11.801 -5.451 0 0 Z " fill="#000000" transform="translate(940.01953125,467.83203125)"/>
<path d="M0 0 C5.445 -0.082 10.89 -0.165 16.5 -0.25 C18.202 -0.286 19.904 -0.323 21.658 -0.36 C37.288 -0.557 37.288 -0.557 43.498 5.448 C48.998 11.645 49.447 16.465 49.312 24.578 C48.759 30.636 46.562 33.401 42.312 37.75 C33.197 44.536 22.831 43.241 12 43 C12 49.6 12 56.2 12 63 C8.04 63 4.08 63 0 63 C0 42.21 0 21.42 0 0 Z M12 10 C12 17.26 12 24.52 12 32 C14.681 32.082 17.362 32.165 20.125 32.25 C20.958 32.286 21.791 32.323 22.649 32.36 C27.904 32.438 30.854 31.504 35 28 C37.484 24.274 37.38 22.413 37 18 C35.981 15.012 35.03 13.574 32.254 12.027 C25.597 9.401 19.068 9.777 12 10 Z " fill="#000000" transform="translate(540,466)"/>
<path d="M0 0 C3.96 0 7.92 0 12 0 C12 20.79 12 41.58 12 63 C8.04 63 4.08 63 0 63 C0 42.21 0 21.42 0 0 Z " fill="#000000" transform="translate(839,466)"/>
</svg>
