<?xml version="1.0" encoding="UTF-8"?>
<!-- Generator: visioncortex VTracer 0.6.12 -->
<svg version="1.1" xmlns="http://www.w3.org/2000/svg" width="3840" height="2160">
<path d="M0 0 C1.188 -0.007 2.377 -0.014 3.601 -0.021 C7.412 -0.039 11.224 -0.045 15.035 -0.047 C15.686 -0.047 15.686 -0.047 18.981 -0.049 C37.88 -0.033 56.389 0.318 75.098 3.203 C75.693 3.292 75.693 3.292 78.707 3.739 C148.682 14.334 216.556 41.116 270.098 88.203 C270.831 88.837 271.565 89.472 272.32 90.125 C274.258 91.805 276.179 93.502 278.098 95.203 C278.829 95.841 279.559 96.479 280.312 97.137 C290.584 106.21 300.468 115.745 308.969 126.516 C311.214 129.35 313.557 132.083 315.91 134.828 C357.09 184.333 381.522 247.462 388.098 311.203 C388.145 311.651 388.145 311.651 388.383 313.919 C390.899 341.519 390.681 370.861 386.098 398.203 C385.899 399.417 385.7 400.632 385.496 401.883 C375.173 463.371 348.794 521.698 305.812 567.305 C303.619 569.647 301.496 572.016 299.41 574.453 C295.546 578.907 291.528 583.306 287.098 587.203 C286.438 587.203 285.778 587.203 285.098 587.203 C285.098 587.863 285.098 588.523 285.098 589.203 C282.682 591.785 279.815 593.949 277.098 596.203 C276.55 596.662 276.003 597.12 275.438 597.592 C208.267 653.715 120.014 687.057 32.195 687.406 C31.007 687.413 29.819 687.42 28.595 687.428 C24.783 687.445 20.972 687.451 17.16 687.453 C16.509 687.453 16.509 687.453 13.215 687.455 C-5.684 687.44 -24.194 687.089 -42.902 684.203 C-44.093 684.026 -45.285 683.849 -46.512 683.667 C-115.363 673.242 -182.789 647.345 -236.488 602.207 C-239.679 599.559 -242.989 597.081 -246.32 594.613 C-246.581 594.381 -246.581 594.381 -247.902 593.203 C-247.902 592.543 -247.902 591.883 -247.902 591.203 C-248.18 591.088 -248.18 591.088 -249.583 590.506 C-252.543 588.843 -254.604 586.761 -257.008 584.363 C-257.491 583.882 -257.975 583.4 -258.473 582.904 C-259.497 581.882 -260.518 580.857 -261.536 579.83 C-263.061 578.295 -264.595 576.771 -266.131 575.248 C-271.737 569.649 -276.972 563.909 -281.903 557.692 C-284.016 555.062 -286.227 552.54 -288.465 550.016 C-332.921 496.641 -356.138 425.029 -357.902 356.203 C-357.924 355.444 -357.946 354.684 -357.969 353.901 C-359.295 301.128 -348.351 246.57 -324.902 199.203 C-324.414 198.213 -323.925 197.223 -323.421 196.204 C-316.679 182.663 -309.509 169.646 -300.902 157.203 C-300.655 156.842 -300.655 156.842 -299.406 155.017 C-291.343 143.262 -282.755 132.206 -273.145 121.664 C-271.659 120.034 -270.185 118.393 -268.723 116.742 C-264.584 112.073 -260.344 107.522 -255.965 103.078 C-255.048 102.147 -254.132 101.217 -253.188 100.258 C-250.902 98.203 -250.902 98.203 -248.902 98.203 C-248.902 97.543 -248.902 96.883 -248.902 96.203 C-246.487 93.621 -243.619 91.458 -240.902 89.203 C-240.349 88.739 -239.797 88.276 -239.227 87.798 C-224.305 75.305 -208.595 64.201 -191.902 54.203 C-191.135 53.739 -190.368 53.276 -189.577 52.798 C-133.456 19.071 -65.546 0.26 0 0 Z M-144.902 118.203 C-145.257 118.456 -145.257 118.456 -147.053 119.738 C-156.866 126.746 -166.155 133.892 -174.902 142.203 C-176.23 143.356 -177.563 144.502 -178.902 145.641 C-187.815 153.423 -195.547 161.956 -202.902 171.203 C-203.619 172.053 -204.336 172.902 -205.074 173.777 C-215.357 185.974 -224.011 199.362 -231.902 213.203 C-232.244 213.799 -232.585 214.395 -232.937 215.009 C-248.003 241.573 -257.45 271.254 -262.902 301.203 C-263.08 302.178 -263.258 303.152 -263.441 304.156 C-268.262 332.161 -268.034 363.273 -262.902 391.203 C-262.747 392.104 -262.591 393.005 -262.431 393.934 C-253.873 442.377 -230.613 488.725 -197.176 524.746 C-195.16 526.924 -193.21 529.139 -191.277 531.391 C-185.33 538.215 -178.825 544.382 -171.902 550.203 C-171.642 550.425 -171.642 550.425 -170.327 551.55 C-113.124 600.271 -38.442 623.857 36.328 618.184 C101.814 612.808 163.387 585.499 211.371 540.684 C213.116 539.096 214.909 537.559 216.758 536.094 C218.833 534.417 220.458 532.804 222.16 530.766 C224.721 527.754 227.369 524.867 230.109 522.017 C275.79 474.021 300.411 406.7 299.285 340.797 C297.523 278.324 275.533 219.361 236.37 170.793 C235.131 169.244 233.915 167.677 232.699 166.109 C231.985 165.192 231.271 164.274 230.535 163.328 C229.915 162.526 229.295 161.725 228.656 160.898 C228.142 160.339 227.628 159.78 227.098 159.203 C226.438 159.203 225.778 159.203 225.098 159.203 C224.963 158.906 224.963 158.906 224.284 157.404 C223.092 155.193 221.896 153.757 220.121 151.996 C219.827 151.703 219.827 151.703 218.336 150.217 C218.028 149.915 218.028 149.915 216.473 148.391 C215.881 147.8 215.289 147.209 214.68 146.6 C161.638 94.073 88.77 68.828 15.008 68.957 C-40.816 69.241 -99.342 85.084 -144.902 118.203 Z " fill="#000000" transform="translate(926.90234375,735.796875)"/>
<path d="M0 0 C57.832 -0.041 115.665 -0.082 175.25 -0.125 C193.476 -0.143 211.703 -0.161 230.481 -0.18 C252.826 -0.189 252.826 -0.189 263.303 -0.191 C270.583 -0.193 277.864 -0.2 285.144 -0.211 C293.564 -0.224 301.984 -0.23 310.403 -0.227 C314.7 -0.226 318.996 -0.227 323.292 -0.238 C385.077 -0.389 446.937 6.442 493 52 C499.394 58.541 505.058 65.304 510 73 C510.709 74.087 511.418 75.173 512.148 76.293 C532.904 108.925 543.011 152.462 535.023 190.602 C534.688 192.069 534.347 193.535 534 195 C533.909 195.401 533.909 195.401 533.446 197.429 C523.985 237.711 498.358 271.547 463.638 293.604 C444.301 305.555 423.749 313.602 402 320 C405.138 325.889 408.527 331.409 412.438 336.812 C413.501 338.299 414.563 339.786 415.625 341.273 C416.177 342.044 416.728 342.815 417.297 343.608 C420.208 347.696 423.069 351.82 425.938 355.938 C431.541 363.962 437.239 371.913 442.984 379.836 C445.674 383.545 448.342 387.269 451 391 C459.359 402.719 467.751 414.408 476.418 425.901 C480.237 430.967 483.999 436.072 487.75 441.188 C493.423 448.916 499.211 456.55 505.038 464.163 C509.42 469.898 513.735 475.677 518 481.5 C524.356 490.176 530.862 498.733 537.395 507.277 C540.795 511.725 544.157 516.199 547.504 520.688 C549.656 523.559 551.841 526.404 554.027 529.25 C554.752 530.195 555.476 531.14 556.223 532.113 C557.677 534.009 559.134 535.902 560.594 537.793 C561.263 538.666 561.932 539.538 562.621 540.438 C563.224 541.22 563.826 542.002 564.447 542.809 C565.872 544.82 566.928 546.789 568 549 C555.17 549.372 542.341 549.656 529.507 549.829 C523.546 549.912 517.589 550.025 511.63 550.207 C505.872 550.382 500.117 550.477 494.357 550.518 C492.167 550.547 489.977 550.605 487.788 550.692 C471.101 551.327 471.101 551.327 465.908 547.43 C462.245 543.671 459.538 539.454 457.033 534.862 C455.724 532.502 454.177 530.365 452.555 528.211 C451.659 526.934 450.766 525.655 449.875 524.375 C448.871 522.944 447.867 521.513 446.863 520.082 C446.622 519.738 446.622 519.738 445.401 517.995 C443.303 515.007 441.185 512.033 439.062 509.062 C438.665 508.507 438.268 507.951 437.859 507.378 C433.863 501.796 429.839 496.235 425.817 490.672 C422.129 485.57 418.462 480.455 414.809 475.328 C411.392 470.538 407.948 465.768 404.5 461 C400.25 455.123 396.018 449.234 391.809 443.328 C388.392 438.538 384.948 433.768 381.5 429 C377.25 423.123 373.018 417.234 368.809 411.328 C365.392 406.538 361.948 401.768 358.5 397 C354.25 391.123 350.018 385.234 345.809 379.328 C342.392 374.538 338.948 369.768 335.5 365 C331.651 359.678 327.812 354.349 324 349 C320.04 343.444 316.056 337.907 312.062 332.375 C311.506 331.604 310.95 330.833 310.377 330.039 C309.852 329.312 309.326 328.585 308.785 327.836 C308.553 327.514 308.553 327.514 307.375 325.884 C306.921 325.262 306.468 324.641 306 324 C305.659 323.312 305.319 322.624 304.968 321.915 C301.852 318.883 298.25 319.444 294.135 319.481 C293.22 319.474 292.305 319.466 291.362 319.458 C288.274 319.438 285.186 319.446 282.097 319.454 C279.854 319.445 277.611 319.435 275.368 319.423 C269.347 319.395 263.326 319.391 257.306 319.392 C251.661 319.39 246.017 319.366 240.372 319.343 C223.853 319.29 207.332 319.272 190.812 319.25 C153.914 319.168 117.016 319.085 79 319 C79 394.9 79 470.8 79 549 C52.93 549 26.86 549 0 549 C0 367.83 0 186.66 0 0 Z M79 66 C79 128.04 79 190.08 79 254 C145.117 254.081 145.117 254.081 172.836 254.098 C179.179 254.102 185.523 254.106 191.866 254.11 C192.661 254.11 193.456 254.111 194.275 254.111 C207.065 254.12 219.855 254.136 232.645 254.154 C245.796 254.173 258.947 254.184 272.098 254.188 C280.196 254.191 288.294 254.199 296.392 254.216 C301.965 254.227 307.538 254.23 313.11 254.227 C316.313 254.226 319.516 254.229 322.718 254.238 C358.324 254.342 397.022 252.932 425 228 C425.759 227.335 426.519 226.67 427.301 225.984 C444.79 209.674 453.19 185.406 454.379 161.957 C455.074 138.545 448.744 119.306 434 101 C433.614 100.51 433.614 100.51 431.66 98.031 C413.96 76.971 384.336 68.544 358.037 66.212 C353.09 65.867 348.156 65.866 343.199 65.88 C342.063 65.879 340.926 65.878 339.755 65.877 C335.975 65.876 332.195 65.881 328.415 65.886 C325.694 65.887 322.974 65.887 320.253 65.886 C314.41 65.886 308.566 65.889 302.723 65.894 C294.275 65.902 285.826 65.905 277.378 65.906 C263.669 65.908 249.959 65.915 236.25 65.925 C222.939 65.934 209.627 65.941 196.316 65.945 C195.486 65.945 194.656 65.946 193.801 65.946 C187.31 65.948 180.819 65.95 174.328 65.952 C142.552 65.961 110.776 65.981 79 66 Z " fill="#000000" transform="translate(1415,828)"/>
<path d="M0 0 C35.64 0 71.28 0 108 0 C114.453 12.26 120.818 24.526 126.959 36.938 C130.813 44.721 134.745 52.452 138.812 60.125 C144.882 71.583 150.631 83.198 156.396 94.812 C161.573 105.235 166.813 115.611 172.267 125.892 C177.642 136.054 182.714 146.368 187.823 156.666 C192.455 165.995 197.12 175.298 202 184.5 C207.81 195.455 213.312 206.559 218.823 217.666 C223.444 226.974 228.098 236.256 232.969 245.438 C238.99 256.789 244.683 268.302 250.396 279.812 C255.573 290.235 260.813 300.611 266.267 310.892 C271.642 321.054 276.714 331.368 281.823 341.666 C286.444 350.974 291.098 360.256 295.969 369.438 C301.99 380.789 307.683 392.302 313.396 403.812 C318.573 414.235 323.813 424.611 329.267 434.892 C334.642 445.054 339.714 455.368 344.823 465.666 C349.433 474.951 354.074 484.212 358.93 493.371 C364.149 503.216 369.171 513.156 374.154 523.122 C375.654 526.121 377.161 529.116 378.668 532.111 C379.625 534.023 380.582 535.935 381.539 537.848 C381.764 538.294 381.764 538.294 382.902 540.552 C383.31 541.372 383.719 542.191 384.139 543.035 C384.5 543.755 384.86 544.475 385.232 545.217 C386 547 386 547 386 549 C354.98 549 323.96 549 292 549 C274.125 513.188 274.125 513.188 268.547 502.005 C266.244 497.393 266.244 497.393 265.155 495.214 C264.417 493.737 263.68 492.259 262.944 490.782 C262.568 490.027 262.192 489.273 261.804 488.496 C261.476 487.836 261.148 487.177 260.81 486.498 C255.67 476.25 250.345 466.155 245 456 C237.08 440.16 229.16 424.32 221 408 C111.11 408 1.22 408 -112 408 C-135.1 454.2 -158.2 500.4 -182 548 C-183.889 549.889 -186.641 549.12 -189.153 549.124 C-190.038 549.121 -190.923 549.117 -191.834 549.114 C-192.761 549.114 -193.688 549.114 -194.643 549.114 C-197.721 549.113 -200.8 549.105 -203.879 549.098 C-206.007 549.096 -208.136 549.094 -210.264 549.093 C-215.879 549.09 -221.493 549.08 -227.107 549.069 C-232.831 549.058 -238.555 549.054 -244.279 549.049 C-255.52 549.038 -266.76 549.021 -278 549 C-276.594 546.022 -275.187 543.044 -273.779 540.066 C-273.583 539.651 -273.583 539.651 -272.592 537.55 C-268.89 529.725 -265.06 521.968 -261.18 514.229 C-260.063 512.001 -258.95 509.77 -257.838 507.539 C-254.028 499.917 -250.144 492.341 -246.152 484.812 C-240.409 473.971 -234.956 462.988 -229.5 452 C-223.707 440.334 -217.883 428.698 -211.776 417.193 C-206.501 407.222 -201.517 397.103 -196.5 387 C-190.707 375.334 -184.883 363.698 -178.776 352.193 C-173.501 342.222 -168.517 332.103 -163.5 322 C-157.707 310.334 -151.883 298.698 -145.776 287.193 C-140.501 277.222 -135.517 267.103 -130.5 257 C-124.707 245.334 -118.883 233.698 -112.776 222.193 C-107.501 212.222 -102.517 202.103 -97.5 192 C-91.707 180.334 -85.883 168.698 -79.776 157.193 C-74.501 147.222 -69.517 137.103 -64.5 127 C-58.707 115.334 -52.883 103.698 -46.776 92.193 C-41.501 82.222 -36.517 72.103 -31.5 62 C-26.064 51.053 -20.627 40.114 -14.906 29.312 C-9.797 19.614 -4.902 9.804 0 0 Z M53 78 C36.561 110.831 20.127 143.665 3.698 176.501 C1.761 180.374 -0.177 184.247 -2.115 188.12 C-2.308 188.505 -2.308 188.505 -3.284 190.456 C-9.538 202.956 -15.795 215.454 -22.053 227.951 C-28.47 240.767 -34.884 253.583 -41.295 266.401 C-45.254 274.316 -49.215 282.23 -53.179 290.143 C-55.894 295.562 -58.606 300.983 -61.316 306.405 C-62.881 309.537 -64.448 312.669 -66.019 315.799 C-67.718 319.185 -69.41 322.575 -71.103 325.965 C-71.605 326.963 -72.107 327.961 -72.624 328.989 C-73.073 329.892 -73.522 330.795 -73.985 331.725 C-74.377 332.508 -74.769 333.291 -75.173 334.097 C-76 336 -76 336 -76 338 C10.46 338 96.92 338 186 338 C175.717 316.292 175.717 316.292 171.938 309.312 C167.869 301.75 164.017 294.087 160.193 286.399 C156.508 278.991 152.813 271.587 149.119 264.183 C148.126 262.192 147.133 260.2 146.142 258.208 C141.257 248.397 136.357 238.602 131.211 228.926 C126.952 220.909 122.864 212.81 118.812 204.688 C118.496 204.054 118.18 203.42 117.854 202.766 C115.236 197.516 112.623 192.264 110.011 187.011 C107.739 182.444 105.465 177.877 103.188 173.312 C103.029 172.995 103.029 172.995 102.229 171.39 C98.157 163.233 94.002 155.129 89.717 147.081 C86.219 140.482 82.874 133.809 79.547 127.121 C78.992 126.005 78.436 124.889 77.864 123.739 C75.577 119.137 73.293 114.533 71.012 109.927 C69.319 106.511 67.621 103.097 65.922 99.684 C65.415 98.657 64.909 97.631 64.387 96.574 C61.224 90.225 57.981 83.884 54 78 C53.67 78 53.34 78 53 78 Z " fill="#000000" transform="translate(2886,828)"/>
<path d="M0 0 C161.7 0 323.4 0 490 0 C490 20.13 490 40.26 490 61 C356.35 61 222.7 61 85 61 C85 118.75 85 176.5 85 236 C185.32 236 285.64 236 389 236 C389 256.46 389 276.92 389 298 C288.68 298 188.36 298 85 298 C85.33 360.7 85.66 423.4 86 488 C219.32 488 352.64 488 490 488 C490 508.13 490 528.26 490 549 C328.3 549 166.6 549 0 549 C0 367.83 0 186.66 0 0 Z " fill="#000000" transform="translate(2080,828)"/>
<path d="M0 0 C25.41 0 50.82 0 77 0 C77.33 161.04 77.66 322.08 78 488 C215.61 488 353.22 488 495 488 C495 508.13 495 528.26 495 549 C331.65 549 168.3 549 0 549 C0 367.83 0 186.66 0 0 Z " fill="#000000" transform="translate(3314,828)"/>
<path d="M0 0 C25.41 0 50.82 0 77 0 C77.33 161.04 77.66 322.08 78 488 C285.938 487.937 285.938 487.937 351.722 487.91 C378.124 487.905 378.124 487.905 390.463 487.905 C399.126 487.904 407.79 487.9 416.453 487.894 C426.431 487.888 436.409 487.885 446.387 487.887 C451.497 487.887 456.607 487.886 461.718 487.881 C466.329 487.876 470.941 487.876 475.553 487.879 C477.229 487.88 478.904 487.878 480.58 487.875 C482.847 487.871 485.114 487.873 487.38 487.877 C488.012 487.877 488.012 487.877 491.208 487.876 C494 488 494 488 495 489 C495 508.8 495 528.6 495 549 C331.65 549 168.3 549 0 549 C0 367.83 0 186.66 0 0 Z " fill="#000000" transform="translate(18,828)"/>
<path d="M0 0 C27.72 0 55.44 0 84 0 C82.486 4.541 81.294 7.449 78.875 11.375 C76.111 15.985 73.619 20.652 71.254 25.477 C67.331 33.396 63.228 41.207 59.062 49 C58.324 50.385 57.586 51.771 56.848 53.156 C55.323 56.019 53.797 58.881 52.27 61.742 C49.023 67.829 45.789 73.923 42.553 80.016 C40.786 83.344 39.018 86.672 37.25 90 C36.542 91.333 35.833 92.667 35.125 94 C30.875 102 30.875 102 29.813 104 C29.104 105.333 28.396 106.667 27.687 108.001 C25.918 111.331 24.149 114.661 22.379 117.991 C18.811 124.707 15.244 131.423 11.68 138.141 C5.006 150.715 -1.674 163.287 -8.387 175.84 C-9.038 177.056 -9.687 178.273 -10.337 179.489 C-11.231 181.164 -12.127 182.838 -13.023 184.512 C-13.528 185.455 -14.032 186.398 -14.552 187.37 C-15.03 188.238 -15.508 189.106 -16 190 C-16.41 190.868 -16.82 191.735 -17.242 192.629 C-19 195 -19 195 -21.525 195.601 C-22.531 195.59 -23.537 195.579 -24.573 195.568 C-25.714 195.567 -26.855 195.567 -28.03 195.566 C-29.262 195.541 -30.493 195.515 -31.762 195.488 C-32.392 195.485 -32.392 195.485 -35.583 195.467 C-38.932 195.444 -42.28 195.399 -45.629 195.343 C-49.047 195.292 -52.466 195.269 -55.885 195.244 C-62.59 195.189 -69.295 195.105 -76 195 C-75.398 190.508 -74.24 186.662 -72.558 182.459 C-72.308 181.83 -72.058 181.201 -71.801 180.553 C-70.972 178.469 -70.134 176.389 -69.297 174.309 C-68.705 172.826 -68.114 171.344 -67.523 169.861 C-66.263 166.699 -64.999 163.539 -63.732 160.381 C-61.733 155.398 -59.743 150.413 -57.754 145.427 C-55.411 139.554 -53.066 133.681 -50.718 127.81 C-45.87 115.685 -41.053 103.548 -36.249 91.406 C-34.591 87.215 -32.931 83.026 -31.272 78.836 C-30.038 75.721 -28.804 72.607 -27.571 69.492 C-23.328 58.779 -19.085 48.066 -14.841 37.354 C-13.476 33.91 -12.112 30.466 -10.748 27.022 C-9.914 24.917 -9.08 22.812 -8.246 20.707 C-8.06 20.237 -8.06 20.237 -7.119 17.861 C-6.766 16.969 -6.413 16.078 -6.049 15.159 C-5.748 14.4 -5.447 13.64 -5.137 12.858 C-3.431 8.569 -1.714 4.285 0 0 Z " fill="#000000" transform="translate(448,828)"/>
<path d="M0 0 C1.4 0.002 2.8 0.001 4.2 -0.004 C7.986 -0.006 11.769 0.041 15.554 0.097 C19.515 0.147 23.476 0.152 27.437 0.161 C34.932 0.186 42.425 0.252 49.919 0.332 C58.453 0.422 66.987 0.465 75.522 0.506 C93.072 0.589 110.621 0.73 128.17 0.908 C125.964 3.114 124.557 3.64 121.644 4.67 C120.691 5.009 119.739 5.349 118.759 5.699 C117.712 6.066 116.666 6.433 115.588 6.811 C114.493 7.2 113.397 7.589 112.269 7.99 C108.634 9.28 104.996 10.563 101.358 11.846 C98.809 12.749 96.26 13.653 93.712 14.558 C89.772 15.957 85.832 17.356 81.891 18.752 C70.159 22.907 58.44 27.101 46.726 31.306 C42.366 32.872 38.005 34.435 33.644 35.999 C30.361 37.177 27.078 38.354 23.795 39.532 C17.045 41.953 10.295 44.374 3.545 46.795 C2.419 47.199 1.293 47.603 0.132 48.019 C-5.45 50.021 -11.033 52.022 -16.617 54.021 C-26.196 57.45 -35.773 60.883 -45.337 64.352 C-49.298 65.788 -53.261 67.218 -57.225 68.648 C-59.072 69.316 -60.92 69.988 -62.765 70.661 C-65.278 71.579 -67.794 72.487 -70.31 73.393 C-71.05 73.665 -71.79 73.938 -72.552 74.219 C-74.292 74.84 -76.059 75.383 -77.83 75.908 C-78.49 75.578 -79.15 75.248 -79.83 74.908 C-79.117 74.135 -78.404 73.361 -77.67 72.564 C-72.911 67.393 -68.177 62.21 -63.572 56.9 C-61.515 54.548 -59.424 52.228 -57.33 49.908 C-54.64 46.928 -51.967 43.936 -49.33 40.908 C-45.937 37.013 -42.478 33.18 -39.017 29.346 C-37.104 27.214 -35.211 25.068 -33.33 22.908 C-30.01 19.097 -26.629 15.343 -23.236 11.596 C-20.83 8.908 -20.83 8.908 -19.55 6.928 C-14.268 -0.545 -8.644 -0.191 0 0 Z " fill="#000000" transform="translate(2347.829833984375,739.091796875)"/>
</svg>
